<svg width="17" height="17" viewBox="0 0 17 17" fill="none" xmlns="http://www.w3.org/2000/svg">
<path fill-rule="evenodd" clip-rule="evenodd" d="M3.22 15.81C4.236 16.25 5.532 16.25 8.125 16.25C10.718 16.25 12.014 16.25 13.03 15.81C14.2763 15.2703 15.2703 14.2763 15.81 13.03C16.25 12.014 16.25 10.718 16.25 8.125C16.25 5.532 16.25 4.236 15.81 3.22C15.2703 1.97375 14.2763 0.979749 13.03 0.44C12.014 -5.96046e-08 10.718 0 8.125 0C5.532 0 4.236 -5.96046e-08 3.22 0.44C1.97375 0.979749 0.979749 1.97375 0.44 3.22C5.96046e-08 4.236 0 5.532 0 8.125C0 10.718 5.96046e-08 12.014 0.44 13.03C0.979749 14.2763 1.97375 15.2703 3.22 15.81ZM11.457 8.125C11.457 9.0091 11.1058 9.85699 10.4806 10.4821C9.85549 11.1073 9.0076 11.4585 8.1235 11.4585C7.2394 11.4585 6.39151 11.1073 5.76636 10.4821C5.14121 9.85699 4.79 9.0091 4.79 8.125C4.79 7.2409 5.14121 6.39301 5.76636 5.76786C6.39151 5.14271 7.2394 4.7915 8.1235 4.7915C9.0076 4.7915 9.85549 5.14271 10.4806 5.76786C11.1058 6.39301 11.457 7.2409 11.457 8.125ZM12.707 4.375C12.9279 4.375 13.1398 4.28724 13.296 4.13102C13.4522 3.9748 13.54 3.76293 13.54 3.542C13.54 3.32107 13.4522 3.1092 13.296 2.95298C13.1398 2.79676 12.9279 2.709 12.707 2.709C12.4859 2.709 12.2739 2.79681 12.1176 2.95313C11.9613 3.10944 11.8735 3.32144 11.8735 3.5425C11.8735 3.76356 11.9613 3.97556 12.1176 4.13187C12.2739 4.28819 12.4859 4.375 12.707 4.375Z" fill="white"/>
</svg>
