<svg width="21" height="17" viewBox="0 0 21 17" fill="none" xmlns="http://www.w3.org/2000/svg">
<path fill-rule="evenodd" clip-rule="evenodd" d="M3.22 15.81C4.236 16.25 5.532 16.25 8.125 16.25C8.1816 16.25 12.1165 16.25 12.1719 16.25C14.6534 16.2498 15.9151 16.2404 16.9089 15.81C18.1552 15.2702 19.1492 14.2763 19.6889 13.03C20.1289 12.014 20.1289 10.718 20.1289 8.125C20.1289 5.532 20.1289 4.236 19.6889 3.22C19.1492 1.97375 18.1552 0.979747 16.9089 0.439998C15.9088 0.00690174 14.6375 0.000106776 12.125 1.67258e-07C12.085 -1.53203e-06 8.16568 6.449e-07 8.125 6.449e-07C5.532 6.449e-07 4.236 5.36442e-07 3.22 0.440001C1.97375 0.979749 0.979749 1.97375 0.44 3.22C5.96046e-08 4.236 0 5.532 0 8.125C0 10.718 5.96046e-08 12.014 0.44 13.03C0.979749 14.2763 1.97375 15.2703 3.22 15.81ZM13.0591 7.23707C13.7416 7.62407 13.733 8.61036 13.0438 8.98534L8.60294 11.4017C7.93659 11.7642 7.125 11.2819 7.125 10.5233V5.58872C7.125 4.82236 7.95163 4.34082 8.61827 4.71884L13.0591 7.23707Z" fill="white"/>
</svg>
