<svg width="40" height="40" viewBox="0 0 40 40" fill="none" xmlns="http://www.w3.org/2000/svg">
<rect width="40" height="40" rx="4" fill="#111111"/>
<path d="M29.5219 10.8574C30.6246 12.2845 31.2218 14.0426 31.2183 15.8515C31.2183 16.9915 30.9854 18.0771 30.5653 19.0624C29.9512 18.7712 29.3056 18.5531 28.6414 18.4123C29.2707 17.0453 29.3764 15.492 28.938 14.0512C28.4997 12.6104 27.5483 11.3839 26.2669 10.6075C24.9855 9.83114 23.4645 9.55981 21.9966 9.84569C20.5287 10.1316 19.2175 10.9545 18.3152 12.1561C17.9584 12.6297 18.0661 13.2866 18.4848 13.7073L23.5914 18.8561C22.9382 19.1199 22.3189 19.4621 21.7469 19.8753L16.5501 14.6369C15.8474 13.9285 15.5566 12.8686 16.0278 11.9878C16.5845 10.946 17.3598 10.039 18.2998 9.33002C19.2397 8.62103 20.3216 8.12707 21.4703 7.88253C22.6189 7.638 23.8066 7.64877 24.9507 7.91409C26.0947 8.17941 27.1677 8.69291 28.0948 9.41883L31.1779 6.31107C31.271 6.21381 31.3824 6.13622 31.5055 6.08282C31.6287 6.02942 31.7612 6.00128 31.8953 6.00004C32.0293 5.99881 32.1623 6.02449 32.2864 6.07561C32.4105 6.12673 32.5233 6.20225 32.6182 6.29778C32.713 6.3933 32.788 6.5069 32.8389 6.63196C32.8897 6.75703 32.9153 6.89104 32.9142 7.02619C32.9131 7.16133 32.8853 7.29491 32.8325 7.41911C32.7796 7.54331 32.7027 7.65566 32.6063 7.7496L29.5219 10.8574ZM14.5293 16.6725L19.7275 21.9123C19.3175 22.4888 18.978 23.1131 18.7164 23.7715L13.6084 18.6227C13.1911 18.202 12.5395 18.0921 12.0696 18.4531C10.8775 19.3626 10.0611 20.6843 9.77753 22.164C9.49393 23.6436 9.7631 25.1768 10.5333 26.4684C11.3035 27.7601 12.5203 28.7191 13.9496 29.161C15.379 29.6029 16.92 29.4964 18.2761 28.862C18.4197 29.5424 18.6347 30.1884 18.921 30.8C17.9144 31.2347 16.8307 31.4587 15.7356 31.4582C13.9411 31.4617 12.197 30.8597 10.7812 29.7482L7.6981 32.856C7.50669 33.0358 7.25352 33.1336 6.99193 33.129C6.73033 33.1243 6.48075 33.0175 6.29575 32.831C6.11074 32.6445 6.00477 32.393 6.00016 32.1293C5.99554 31.8656 6.09264 31.6104 6.271 31.4174L9.35407 28.3097C8.63411 27.3752 8.12481 26.2939 7.86164 25.1408C7.59846 23.9878 7.58773 22.7908 7.83018 21.6332C8.07263 20.4755 8.56244 19.3851 9.26553 18.4377C9.96861 17.4903 10.8681 16.7087 11.9013 16.1473C12.7764 15.671 13.8265 15.9655 14.5293 16.6725ZM20.5649 25.6525C20.9167 25.5647 21.2473 25.4063 21.5369 25.1867C21.8266 24.9671 22.0692 24.6908 22.2504 24.3743C22.4315 24.0579 22.5474 23.7079 22.5912 23.3452C22.6349 22.9826 22.6056 22.6147 22.5049 22.2638L22.2383 21.3328C22.8316 20.8121 23.5063 20.3939 24.2349 20.0951L24.9067 20.8063C25.1583 21.073 25.461 21.2853 25.7964 21.4304C26.1319 21.5755 26.4932 21.6504 26.8582 21.6504C27.2233 21.6504 27.5845 21.5755 27.92 21.4304C28.2555 21.2853 28.5582 21.073 28.8097 20.8063L29.4734 20.1033C30.2035 20.4061 30.8787 20.8289 31.4714 21.3545L31.221 22.2095C31.1175 22.5625 31.0864 22.933 31.1295 23.2985C31.1726 23.6641 31.2889 24.0169 31.4715 24.3357C31.6541 24.6544 31.8991 24.9324 32.1917 25.1527C32.4842 25.373 32.8181 25.531 33.1731 25.6172L33.8988 25.7936C34.031 26.6059 34.0337 27.4341 33.9069 28.2473L33.1206 28.4427C32.7691 28.5306 32.4387 28.6891 32.1494 28.9087C31.86 29.1283 31.6176 29.4044 31.4366 29.7207C31.2556 30.0369 31.1397 30.3868 31.096 30.7492C31.0522 31.1116 31.0814 31.4792 31.1819 31.83L31.4472 32.761C30.854 33.2821 30.1793 33.7008 29.4506 34L28.7801 33.2875C28.5285 33.0206 28.2258 32.8081 27.8902 32.6629C27.5546 32.5176 27.1932 32.4427 26.8279 32.4427C26.4627 32.4427 26.1013 32.5176 25.7657 32.6629C25.4301 32.8081 25.1273 33.0206 24.8758 33.2875L24.212 33.9905C23.4821 33.6881 22.8069 33.2657 22.2141 32.7406L22.4659 31.8843C22.5691 31.5314 22.6001 31.161 22.5569 30.7956C22.5137 30.4303 22.3973 30.0776 22.2147 29.759C22.0321 29.4404 21.7872 29.1625 21.4948 28.9423C21.2023 28.7221 20.8686 28.5641 20.5137 28.478L19.7867 28.3015C19.6545 27.4893 19.6518 26.661 19.7786 25.8479L20.5649 25.6525ZM24.8906 27.0476C24.8906 28.1713 25.7657 29.0832 26.8427 29.0832C27.9198 29.0832 28.7949 28.1713 28.7949 27.0476C28.7949 25.9225 27.9198 25.0119 26.8427 25.0119C25.7657 25.0119 24.8906 25.9225 24.8906 27.0476Z" fill="white"/>
</svg>
