<svg width="40" height="40" viewBox="0 0 40 40" fill="none" xmlns="http://www.w3.org/2000/svg">
<rect width="40" height="40" rx="4" fill="#111111"/>
<path d="M14.4945 32C14.252 32 14.0251 31.9434 13.8139 31.8303C13.6026 31.7171 13.4372 31.54 13.3176 31.2989L10.3719 25.868H12.481L14.0285 28.9023H17.4V27.5823H14.8081L13.2606 24.548H9.6426L7.5117 20.6909C7.45581 20.5709 7.41222 20.456 7.38093 20.3463C7.34963 20.2366 7.33398 20.1211 7.33398 20C7.33398 19.9291 7.39322 19.6983 7.5117 19.3074L9.6426 15.4503H13.2606L14.8081 12.4177H17.4V11.0977H14.0285L12.4793 14.132H10.3736L13.3193 8.70286C13.4366 8.46057 13.6015 8.28286 13.8139 8.16971C14.0251 8.05657 14.252 8 14.4945 8H18.3339C18.7239 8 19.0475 8.13143 19.3046 8.39429C19.5617 8.65714 19.6902 8.98743 19.6902 9.38514V15.5823H17.1418L15.8526 16.9023H19.6902V21.5823H16.3874L14.9053 18.5823H11.7903L10.4993 19.9023H14.124L15.6078 22.9023H19.6902V30.6166C19.6902 31.0143 19.5617 31.344 19.3046 31.6057C19.0475 31.8686 18.7245 32 18.3355 32H14.4945ZM22.3324 32C21.9435 32 21.621 31.8686 21.3651 31.6057C21.108 31.3429 20.9795 31.0126 20.9795 30.6149V22.9006H25.0602L26.5439 19.9006H30.167L28.8777 18.5823H25.766L24.2504 21.5823H20.9811V16.9023H24.8171L23.5261 15.5823H20.9811V9.38514C20.9811 8.98743 21.1097 8.65714 21.3667 8.39429C21.6238 8.13143 21.9463 8 22.3341 8H26.1734C26.4171 8 26.6451 8.05657 26.8575 8.16971C27.0698 8.28286 27.2347 8.46 27.352 8.70114L30.2977 14.132H28.1903L26.6429 11.0977H23.268V12.4177H25.8599L27.3755 15.452H31.0254L33.1563 19.3091C33.2122 19.4291 33.2557 19.544 33.287 19.6537C33.3183 19.7634 33.334 19.8789 33.334 20C33.334 20.0709 33.2747 20.3017 33.1563 20.6926L31.0254 24.5497H27.3755L25.8599 27.5823H23.268V28.9023H26.6395L28.1886 25.868H30.2961L27.3504 31.2971C27.2319 31.5394 27.067 31.7171 26.8558 31.8303C26.6434 31.9434 26.416 32 26.1734 32H22.3324Z" fill="white"/>
</svg>
