<svg width="40" height="40" viewBox="0 0 40 40" fill="none" xmlns="http://www.w3.org/2000/svg">
<rect width="40" height="40" rx="4" fill="#111111"/>
<path d="M14.1143 24.6429H8.52808C7.50115 24.6429 6.66602 23.8099 6.66602 22.7857V17.2143C6.66602 16.1901 7.50115 15.3572 8.52808 15.3572H14.1143C15.1412 15.3572 15.9764 16.1901 15.9764 17.2143V22.7857C15.9764 23.8099 15.1412 24.6429 14.1143 24.6429ZM8.52808 17.2143V22.7857H14.1143V17.2143H8.52808ZM20.6315 33C20.2945 33 19.9606 32.9876 19.6297 32.9629C15.5779 32.6546 11.8463 30.426 9.64626 27.0014L11.2151 25.9986C12.15 27.4505 13.4086 28.6673 14.8928 29.554C16.377 30.4407 18.0466 30.9733 19.7713 31.1104C20.0549 31.132 20.3417 31.1429 20.6315 31.1429V33ZM27.1488 33L25.1936 32.0714C23.6108 31.3286 22.4936 29.6571 22.4936 27.8929V21.8572H31.8039V27.8929C31.8039 29.6571 30.7798 31.3286 29.1039 32.0714L27.1488 33ZM24.3557 23.7143V27.8929C24.3557 29.0071 25.0074 29.9357 25.9384 30.4L27.1488 30.9571L28.3591 30.4C29.2902 29.9357 29.9419 28.9143 29.9419 27.8929V23.7143H24.3557ZM31.155 16.2857C31.5768 17.4762 31.8039 18.7195 31.8039 20H33.666C33.666 18.7279 33.4807 17.4854 33.1223 16.2857H31.155ZM30.8729 14.4286H28.0798C27.0529 14.4286 26.2177 13.5957 26.2177 12.5715V9.78574C26.2177 8.76153 27.0529 7.9286 28.0798 7.9286H30.8729C31.8998 7.9286 32.735 8.76153 32.735 9.78574V12.5715C32.735 13.5957 31.8998 14.4286 30.8729 14.4286ZM28.0798 9.78574V12.5715H30.8729V9.78574H28.0798ZM24.3557 7.54231C23.1471 7.18282 21.8927 7.00015 20.6315 7.00003C18.4421 6.99545 16.287 7.54297 14.3666 8.59171C12.4462 9.64046 10.8227 11.1564 9.64719 12.9986L11.2151 14.0014C12.5702 11.8775 14.6086 10.2758 16.9961 9.45892C19.3837 8.64201 21.9787 8.65837 24.3557 9.50531V7.54231Z" fill="white"/>
</svg>
