<svg width="22" height="25" viewBox="0 0 22 25" fill="none" xmlns="http://www.w3.org/2000/svg">
<path d="M11.0002 11.3497C12.1003 11.3497 12.9922 10.4579 12.9922 9.35773C12.9922 8.25758 12.1003 7.36572 11.0002 7.36572C9.90003 7.36572 9.00818 8.25758 9.00818 9.35773C9.00818 10.4579 9.90003 11.3497 11.0002 11.3497Z" fill="url(#paint0_linear_463_2760)"/>
<path d="M6.62781 22.4746H15.8096V24.6608H6.62781V22.4746Z" fill="white"/>
<path d="M15.8096 5.52437L11.2187 0.660645L6.62781 5.52437V21.5999H15.8096V5.52437ZM11.0001 12.224C9.41951 12.224 8.13362 10.9381 8.13362 9.35755C8.13362 7.77697 9.41951 6.49108 11.0001 6.49108C12.5807 6.49108 13.8666 7.77697 13.8666 9.35755C13.8666 10.9381 12.5807 12.224 11.0001 12.224Z" fill="white"/>
<path d="M16.2469 23.3492H21.4937V18.5681L16.2469 15.3457V23.3492Z" fill="white"/>
<path d="M5.75333 15.3457L0.506592 18.5681V23.3492H5.75333V15.3457Z" fill="white"/>
<defs>
<linearGradient id="paint0_linear_463_2760" x1="9.18244" y1="7.41561" x2="12.8219" y2="11.1877" gradientUnits="userSpaceOnUse">
<stop stop-color="#F66234"/>
<stop offset="1" stop-color="#C8370B"/>
</linearGradient>
</defs>
</svg>
