<svg width="40" height="40" viewBox="0 0 40 40" fill="none" xmlns="http://www.w3.org/2000/svg">
<rect width="40" height="40" rx="4" fill="#191919"/>
<path d="M11.3359 27.6437L27.6408 11.3388L28.6566 12.3546L12.3517 28.6595L11.3359 27.6437Z" fill="url(#paint0_linear_mfg_quality)"/>
<path d="M15.7403 21.2097C15.631 20.825 15.5687 20.4195 15.5687 19.9996C15.5687 17.5523 17.5523 15.5687 19.9988 15.5687C20.4195 15.5687 20.8242 15.631 21.2105 15.7419L24.7019 12.2481C23.5229 11.5329 22.17 11.0707 20.7172 10.9574V8H19.2812V10.9574C14.8423 11.3062 11.3062 14.8407 10.9574 19.2812H8V20.718H10.9574C11.0715 22.1692 11.5329 23.5229 12.2489 24.7027L15.7403 21.2097Z" fill="white"/>
<path d="M29.0404 19.2812C28.9263 17.8284 28.4665 16.4763 27.7497 15.2981L24.2575 18.7887C24.3676 19.175 24.4291 19.5789 24.4291 20.0004C24.4291 22.4461 22.4463 24.4297 19.999 24.4297C19.5791 24.4297 19.1736 24.3674 18.7881 24.2597L15.2959 27.7503C16.4765 28.4671 17.8286 28.9277 19.2806 29.041V32H20.7182V29.041C25.1571 28.693 28.6924 25.1577 29.0404 20.7188H31.9994V19.2812H29.0404Z" fill="white"/>
<defs>
<linearGradient id="paint0_linear_mfg_quality" x1="12.0619" y1="26.9432" x2="14.0235" y2="28.6824" gradientUnits="userSpaceOnUse">
<stop stop-color="#2595D5"/>
<stop offset="1" stop-color="#1C72A3"/>
</linearGradient>
</defs>
</svg>
