<svg width="24" height="25" viewBox="0 0 24 25" fill="none" xmlns="http://www.w3.org/2000/svg">
<path d="M11.0999 24.6608C13.1885 24.6592 15.2343 24.0682 17.0019 22.9556C18.7695 21.8431 20.1871 20.2541 21.0918 18.3716C21.9964 16.4891 22.3513 14.3895 22.1157 12.3142C21.88 10.239 21.0634 8.2724 19.7596 6.64068L21.307 5.08742L22.072 5.85237C22.1263 5.9071 22.1909 5.95054 22.262 5.98019C22.3332 6.00983 22.4095 6.0251 22.4866 6.0251C22.5637 6.0251 22.64 6.00983 22.7111 5.98019C22.7823 5.95054 22.8469 5.9071 22.9012 5.85237L23.8238 4.92976C23.8785 4.87548 23.922 4.81089 23.9516 4.73974C23.9812 4.66858 23.9965 4.59226 23.9965 4.51517C23.9965 4.43808 23.9812 4.36176 23.9516 4.2906C23.922 4.21945 23.8785 4.15486 23.8238 4.10058L20.5538 0.830569C20.4444 0.721812 20.2964 0.660767 20.1421 0.660767C19.9878 0.660767 19.8398 0.721812 19.7304 0.830569L18.802 1.75902C18.6932 1.86843 18.6322 2.01642 18.6322 2.17069C18.6322 2.32496 18.6932 2.47295 18.802 2.58236L19.5669 3.34731L18.0195 4.89472C16.6344 3.78925 15.0047 3.03165 13.2667 2.68533C11.5288 2.33901 9.73311 2.41406 8.0301 2.90418C6.32708 3.39431 4.76625 4.28526 3.47825 5.50245C2.19025 6.71964 1.21256 8.22766 0.627023 9.90027C0.0414841 11.5729 -0.134868 13.3614 0.112728 15.1162C0.360324 16.871 1.02466 18.5409 2.05014 19.9862C3.07561 21.4315 4.43238 22.6101 6.00688 23.4234C7.58138 24.2367 9.3278 24.661 11.0999 24.6608ZM4.9278 8.21729L5.31903 8.60852C5.37311 8.6637 5.4376 8.70759 5.50877 8.73766C5.57994 8.76773 5.65636 8.78338 5.73362 8.7837C5.8491 8.78322 5.96185 8.7485 6.05761 8.68394C6.15336 8.61938 6.22782 8.52787 6.27158 8.42099C6.31533 8.31412 6.3264 8.19666 6.30341 8.08349C6.28041 7.97032 6.22437 7.86651 6.14237 7.78518L5.75114 7.39395C7.08261 6.23551 8.75538 5.54262 10.516 5.42026V5.975C10.516 6.12986 10.5775 6.27839 10.687 6.3879C10.7965 6.49741 10.9451 6.55893 11.0999 6.55893C11.2548 6.55893 11.4033 6.49741 11.5128 6.3879C11.6223 6.27839 11.6839 6.12986 11.6839 5.975V5.42026C13.4445 5.54262 15.1173 6.23551 16.4487 7.39395L16.0575 7.78518C15.9755 7.86651 15.9195 7.97032 15.8965 8.08349C15.8735 8.19666 15.8846 8.31412 15.9283 8.42099C15.9721 8.52787 16.0465 8.61938 16.1423 8.68394C16.238 8.7485 16.3508 8.78322 16.4663 8.7837C16.5435 8.78338 16.6199 8.76773 16.6911 8.73766C16.7623 8.70759 16.8268 8.6637 16.8809 8.60852L17.2721 8.21729C18.4411 9.54489 19.1444 11.2181 19.275 12.9822H18.691C18.5362 12.9822 18.3876 13.0437 18.2781 13.1532C18.1686 13.2627 18.1071 13.4112 18.1071 13.5661C18.1071 13.721 18.1686 13.8695 18.2781 13.979C18.3876 14.0885 18.5362 14.15 18.691 14.15H19.275C19.1526 15.9106 18.4597 17.5834 17.3013 18.9149L16.91 18.5237C16.7983 18.428 16.6546 18.378 16.5077 18.3837C16.3607 18.3894 16.2213 18.4503 16.1173 18.5543C16.0133 18.6583 15.9524 18.7977 15.9467 18.9446C15.9411 19.0916 15.991 19.2353 16.0867 19.347L16.4779 19.7382C15.1425 20.9131 13.4582 21.6168 11.6839 21.7411V21.1572C11.6839 21.0023 11.6223 20.8538 11.5128 20.7443C11.4033 20.6348 11.2548 20.5733 11.0999 20.5733C10.9451 20.5733 10.7965 20.6348 10.687 20.7443C10.5775 20.8538 10.516 21.0023 10.516 21.1572V21.7411C8.75538 21.6188 7.08261 20.9259 5.75114 19.7674L6.14237 19.3762C6.23803 19.2645 6.28802 19.1208 6.28235 18.9738C6.27667 18.8269 6.21575 18.6875 6.11175 18.5835C6.00776 18.4795 5.86835 18.4186 5.72139 18.4129C5.57443 18.4072 5.43074 18.4572 5.31903 18.5529L4.9278 18.9441C3.7635 17.6048 3.07023 15.9208 2.95411 14.15H3.50885C3.66371 14.15 3.81224 14.0885 3.92175 13.979C4.03125 13.8695 4.09278 13.721 4.09278 13.5661C4.09278 13.4112 4.03125 13.2627 3.92175 13.1532C3.81224 13.0437 3.66371 12.9822 3.50885 12.9822H2.95411C3.07647 11.2215 3.76936 9.54876 4.9278 8.21729Z" fill="white"/>
<path d="M9.93204 15.3179C10.0089 15.3183 10.0851 15.3036 10.1562 15.2745C10.2274 15.2455 10.2921 15.2027 10.3466 15.1485L10.8021 14.6931C10.8993 14.7189 10.9993 14.7327 11.0999 14.734C11.4096 14.734 11.7067 14.6109 11.9257 14.3919C12.1447 14.1729 12.2678 13.8758 12.2678 13.5661C12.2665 13.4655 12.2527 13.3655 12.2269 13.2683L15.0181 10.4771C15.0725 10.4227 15.1157 10.358 15.1452 10.2869C15.1746 10.2158 15.1898 10.1395 15.1898 10.0625C15.1898 9.98552 15.1746 9.90928 15.1452 9.83814C15.1157 9.76701 15.0725 9.70237 15.0181 9.64793C14.9636 9.59348 14.899 9.55029 14.8279 9.52083C14.7567 9.49136 14.6805 9.4762 14.6035 9.4762C14.5265 9.4762 14.4502 9.49136 14.3791 9.52083C14.308 9.55029 14.2433 9.59348 14.1889 9.64793L11.3977 12.4391C11.3005 12.4133 11.2005 12.3995 11.0999 12.3982C10.7902 12.3982 10.4931 12.5213 10.2741 12.7403C10.0551 12.9593 9.93204 13.2564 9.93204 13.5661C9.93334 13.6667 9.94707 13.7667 9.97292 13.8639L9.51745 14.3194C9.46272 14.3737 9.41928 14.4382 9.38963 14.5094C9.35999 14.5806 9.34473 14.6569 9.34473 14.734C9.34473 14.811 9.35999 14.8874 9.38963 14.9585C9.41928 15.0297 9.46272 15.0943 9.51745 15.1485C9.57202 15.2027 9.63672 15.2455 9.70787 15.2745C9.77901 15.3036 9.85519 15.3183 9.93204 15.3179Z" fill="url(#paint0_linear_520_153)"/>
<defs>
<linearGradient id="paint0_linear_520_153" x1="9.6004" y1="9.54935" x2="14.9367" y2="15.0833" gradientUnits="userSpaceOnUse">
<stop stop-color="#F66234"/>
<stop offset="1" stop-color="#C8370B"/>
</linearGradient>
</defs>
</svg>
