<svg width="24" height="25" viewBox="0 0 24 25" fill="none" xmlns="http://www.w3.org/2000/svg">
<path d="M3.33679 20.3044L19.6417 3.99954L20.6575 5.01536L4.3526 21.3203L3.33679 20.3044Z" fill="url(#paint0_linear_520_141)"/>
<path d="M7.7408 13.8705C7.63145 13.4857 7.56918 13.0802 7.56918 12.6604C7.56918 10.213 9.55275 8.22946 11.9993 8.22946C12.42 8.22946 12.8246 8.29172 13.211 8.40268L16.7024 4.90888C15.5234 4.19368 14.1704 3.73151 12.7177 3.61816V0.660767H11.2817V3.61816C6.84281 3.96698 3.3067 7.50149 2.95788 11.942H0.000488281V13.3788H2.95788C3.07203 14.8299 3.5334 16.1837 4.2494 17.3635L7.7408 13.8705Z" fill="white"/>
<path d="M21.0406 11.942C20.9265 10.4892 20.4667 9.13703 19.7499 7.95886L16.2577 11.4495C16.3679 11.8358 16.4293 12.2397 16.4293 12.6612C16.4293 15.1069 14.4466 17.0905 11.9992 17.0905C11.5794 17.0905 11.1739 17.0282 10.7883 16.9204L7.29614 20.4111C8.47671 21.1279 9.82889 21.5884 11.2808 21.7018V24.6608H12.7184V21.7018C17.1573 21.3537 20.6926 17.8184 21.0406 13.3796H23.9996V11.942H21.0406Z" fill="white"/>
<defs>
<linearGradient id="paint0_linear_520_141" x1="4.06271" y1="19.604" x2="6.02434" y2="21.3431" gradientUnits="userSpaceOnUse">
<stop stop-color="#F66234"/>
<stop offset="1" stop-color="#C8370B"/>
</linearGradient>
</defs>
</svg>
