<svg width="40" height="40" viewBox="0 0 40 40" fill="none" xmlns="http://www.w3.org/2000/svg">
<rect width="40" height="40" rx="4" fill="#151515"/>
<g clip-path="url(#clip0_mfg_sustainable)">
<path d="M19.7276 19.3442C19.9121 19.3442 20.0948 19.3078 20.2653 19.2372C20.4358 19.1666 20.5908 19.063 20.7212 18.9326C20.8517 18.8021 20.9553 18.6471 21.0259 18.4766C21.0965 18.3061 21.1328 18.1234 21.1328 17.9389C21.1328 17.7543 21.0965 17.5716 21.0259 17.4011C20.9553 17.2306 20.8517 17.0757 20.7212 16.9452C20.5908 16.8147 20.4358 16.7112 20.2653 16.6405C20.0948 16.5699 19.9121 16.5336 19.7276 16.5336C19.3549 16.5336 18.9974 16.6816 18.7339 16.9452C18.4703 17.2087 18.3223 17.5662 18.3223 17.9389C18.3223 18.3116 18.4703 18.669 18.7339 18.9326C18.9974 19.1961 19.3549 19.3442 19.7276 19.3442Z" fill="url(#paint0_linear_mfg_sustainable)"/>
<path d="M16.6435 27.1927H23.1205V28.7343H16.6435V27.1927ZM23.1205 15.2342L19.8824 11.8031L16.6435 15.2342V26.5756H23.1205V15.2342ZM19.7275 19.9606C19.1916 19.9599 18.6778 19.7467 18.2988 19.3677C17.9198 18.9887 17.7066 18.4749 17.7059 17.939C17.7064 17.4029 17.9195 16.8888 18.2985 16.5097C18.6775 16.1305 19.1914 15.9172 19.7275 15.9165C20.2639 15.9168 20.7783 16.1299 21.1577 16.5091C21.537 16.8883 21.7504 17.4026 21.7508 17.939C21.7504 18.4754 21.537 18.9896 21.1577 19.3689C20.7783 19.7481 20.2639 19.9612 19.7275 19.9614V19.9606ZM23.4295 27.809H27.1307V24.4363L23.4295 22.1633V27.809ZM16.0264 22.1633L12.3252 24.4363V27.809H16.0264V22.1625V22.1633Z" fill="white"/>
</g>
<defs>
<linearGradient id="paint0_linear_mfg_sustainable" x1="18.4459" y1="16.5683" x2="21.0126" y2="19.2299" gradientUnits="userSpaceOnUse">
<stop stop-color="#F66234"/>
<stop offset="1" stop-color="#C8370B"/>
</linearGradient>
<clipPath id="clip0_mfg_sustainable">
<rect width="15.2381" height="17.7778" fill="white" transform="translate(12.2227 11.1111)"/>
</clipPath>
</defs>
</svg>
