<svg width="40" height="40" viewBox="0 0 40 40" fill="none" xmlns="http://www.w3.org/2000/svg">
<rect width="40" height="40" rx="4" fill="#191919"/>
<path d="M19.0999 32C21.1885 31.9985 23.2343 31.4074 25.0019 30.2949C26.7695 29.1823 28.1871 27.5934 29.0918 25.7109C29.9964 23.8284 30.3513 21.7287 30.1157 19.6535C29.88 17.5782 29.0634 15.6116 27.7596 13.9799L29.307 12.4267L30.072 13.1916C30.1263 13.2463 30.1909 13.2898 30.262 13.3194C30.3332 13.3491 30.4095 13.3643 30.4866 13.3643C30.5637 13.3643 30.64 13.3491 30.7111 13.3194C30.7823 13.2898 30.8469 13.2463 30.9012 13.1916L31.8238 12.269C31.8785 12.2147 31.922 12.1501 31.9516 12.079C31.9812 12.0078 31.9965 11.9315 31.9965 11.8544C31.9965 11.7773 31.9812 11.701 31.9516 11.6298C31.922 11.5587 31.8785 11.4941 31.8238 11.4398L28.5538 8.1698C28.4444 8.06104 28.2964 8 28.1421 8C27.9878 8 27.8398 8.06104 27.7304 8.1698L26.802 9.09825C26.6932 9.20766 26.6322 9.35566 26.6322 9.50992C26.6322 9.66419 26.6932 9.81219 26.802 9.92159L27.5669 10.6865L26.0195 12.234C24.6344 11.1285 23.0047 10.3709 21.2667 10.0246C19.5288 9.67825 17.7331 9.75329 16.0301 10.2434C14.3271 10.7335 12.7662 11.6245 11.4782 12.8417C10.1902 14.0589 9.21256 15.5669 8.62702 17.2395C8.04148 18.9121 7.86513 20.7007 8.11273 22.4554C8.36032 24.2102 9.02466 25.8801 10.0501 27.3254C11.0756 28.7707 12.4324 29.9493 14.0069 30.7626C15.5814 31.5759 17.3278 32.0002 19.0999 32ZM12.9278 15.5565L13.319 15.9478C13.3731 16.0029 13.4376 16.0468 13.5088 16.0769C13.5799 16.107 13.6564 16.1226 13.7336 16.1229C13.8491 16.1224 13.9619 16.0877 14.0576 16.0232C14.1534 15.9586 14.2278 15.8671 14.2716 15.7602C14.3153 15.6533 14.3264 15.5359 14.3034 15.4227C14.2804 15.3096 14.2244 15.2057 14.1424 15.1244L13.7511 14.7332C15.0826 13.5747 16.7554 12.8819 18.516 12.7595V13.3142C18.516 13.4691 18.5775 13.6176 18.687 13.7271C18.7965 13.8366 18.9451 13.8982 19.0999 13.8982C19.2548 13.8982 19.4033 13.8366 19.5128 13.7271C19.6223 13.6176 19.6839 13.4691 19.6839 13.3142V12.7595C21.4445 12.8819 23.1173 13.5747 24.4487 14.7332L24.0575 15.1244C23.9755 15.2057 23.9195 15.3096 23.8965 15.4227C23.8735 15.5359 23.8846 15.6533 23.9283 15.7602C23.9721 15.8671 24.0465 15.9586 24.1423 16.0232C24.238 16.0877 24.3508 16.1224 24.4663 16.1229C24.5435 16.1226 24.6199 16.107 24.6911 16.0769C24.7623 16.0468 24.8268 16.0029 24.8809 15.9478L25.2721 15.5565C26.4411 16.8841 27.1444 18.5573 27.275 20.3214H26.691C26.5362 20.3214 26.3876 20.3829 26.2781 20.4924C26.1686 20.6019 26.1071 20.7505 26.1071 20.9053C26.1071 21.0602 26.1686 21.2087 26.2781 21.3182C26.3876 21.4277 26.5362 21.4893 26.691 21.4893H27.275C27.1526 23.2499 26.4597 24.9227 25.3013 26.2541L24.91 25.8629C24.7983 25.7672 24.6546 25.7172 24.5077 25.7229C24.3607 25.7286 24.2213 25.7895 24.1173 25.8935C24.0133 25.9975 23.9524 26.1369 23.9467 26.2839C23.9411 26.4308 23.991 26.5745 24.0867 26.6862L24.4779 27.0775C23.1425 28.2523 21.4582 28.956 19.6839 29.0803V28.4964C19.6839 28.3416 19.6223 28.193 19.5128 28.0835C19.4033 27.974 19.2548 27.9125 19.0999 27.9125C18.9451 27.9125 18.7965 27.974 18.687 28.0835C18.5775 28.193 18.516 28.3416 18.516 28.4964V29.0803C16.7554 28.958 15.0826 28.2651 13.7511 27.1067L14.1424 26.7154C14.238 26.6037 14.288 26.46 14.2823 26.3131C14.2767 26.1661 14.2157 26.0267 14.1118 25.9227C14.0078 25.8187 13.8683 25.7578 13.7214 25.7521C13.5744 25.7464 13.4307 25.7964 13.319 25.8921L12.9278 26.2833C11.7635 24.944 11.0702 23.2601 10.9541 21.4893H11.5088C11.6637 21.4893 11.8122 21.4277 11.9217 21.3182C12.0313 21.2087 12.0928 21.0602 12.0928 20.9053C12.0928 20.7505 12.0313 20.6019 11.9217 20.4924C11.8122 20.3829 11.6637 20.3214 11.5088 20.3214H10.9541C11.0765 18.5608 11.7694 16.888 12.9278 15.5565Z" fill="white"/>
<path d="M17.932 22.6571C18.0089 22.6576 18.0851 22.6428 18.1562 22.6138C18.2274 22.5847 18.2921 22.5419 18.3466 22.4878L18.8021 22.0323C18.8993 22.0582 18.9993 22.0719 19.0999 22.0732C19.4096 22.0732 19.7067 21.9502 19.9257 21.7311C20.1447 21.5121 20.2678 21.2151 20.2678 20.9053C20.2665 20.8048 20.2527 20.7047 20.2269 20.6075L23.0181 17.8163C23.0725 17.7619 23.1157 17.6973 23.1452 17.6261C23.1746 17.555 23.1898 17.4787 23.1898 17.4017C23.1898 17.3248 23.1746 17.2485 23.1452 17.1774C23.1157 17.1062 23.0725 17.0416 23.0181 16.9872C22.9636 16.9327 22.899 16.8895 22.8279 16.8601C22.7567 16.8306 22.6805 16.8154 22.6035 16.8154C22.5265 16.8154 22.4502 16.8306 22.3791 16.8601C22.308 16.8895 22.2433 16.9327 22.1889 16.9872L19.3977 19.7783C19.3005 19.7525 19.2005 19.7388 19.0999 19.7375C18.7902 19.7375 18.4931 19.8605 18.2741 20.0795C18.0551 20.2985 17.932 20.5956 17.932 20.9053C17.9333 21.0059 17.9471 21.1059 17.9729 21.2031L17.5175 21.6586C17.4627 21.7129 17.4193 21.7775 17.3896 21.8486C17.36 21.9198 17.3447 21.9961 17.3447 22.0732C17.3447 22.1503 17.36 22.2266 17.3896 22.2978C17.4193 22.3689 17.4627 22.4335 17.5175 22.4878C17.572 22.5419 17.6367 22.5847 17.7079 22.6138C17.779 22.6428 17.8552 22.6576 17.932 22.6571Z" fill="url(#paint0_linear_mfg_fashion)"/>
<defs>
<linearGradient id="paint0_linear_mfg_fashion" x1="17.6004" y1="16.8886" x2="22.9367" y2="22.4225" gradientUnits="userSpaceOnUse">
<stop stop-color="#2595D5"/>
<stop offset="1" stop-color="#1C72A3"/>
</linearGradient>
</defs>
</svg>
