<?xml version="1.0" encoding="UTF-8"?>
<svg id="Layer_1" data-name="Layer 1" xmlns="http://www.w3.org/2000/svg" viewBox="70 0 90 23" width="90" height="23">
  <defs>
    <style>
      .cls-1 {
        fill: #143c3f;
      }

      .cls-2 {
        fill: none;
      }
    </style>
  </defs>
  <g>
    <path class="cls-1" d="m117.24,20.51s-.05.02-.06,0c.04,0,.06,0,.06,0"/>
    <g>
      <path class="cls-1" d="m78.1,22.84c-2.54,0-4.53-.72-5.96-2.17-1.43-1.45-2.14-3.49-2.14-6.12,0-1.42.26-2.76.78-4.02.52-1.26,1.33-2.29,2.44-3.08,1.11-.79,2.52-1.19,4.25-1.19,1.61,0,2.96.37,4.07,1.11,1.11.74,1.94,1.71,2.52,2.89.57,1.19.86,2.48.86,3.88,0,.4-.13.73-.39,1-.26.27-.61.41-1.05.41h-10.61c.17,1.4.7,2.52,1.6,3.36.9.84,2.19,1.27,3.88,1.27.94,0,1.73-.09,2.38-.27.65-.18,1.26-.41,1.85-.7.17-.08.35-.13.56-.13.33,0,.63.11.88.34.25.23.38.52.38.88,0,.25-.08.47-.23.67-.16.2-.35.36-.58.48-.69.4-1.43.72-2.24.99-.8.26-1.88.39-3.24.39Zm-5.22-9.6h9.23c-.06-1.08-.34-1.96-.83-2.63-.49-.67-1.08-1.16-1.77-1.47-.69-.31-1.37-.47-2.03-.47s-1.35.16-2.03.47c-.69.31-1.27.8-1.75,1.47-.48.67-.75,1.54-.81,2.63Z"/>
      <path class="cls-1" d="m94.68,22.84c-1.48,0-2.86-.33-4.13-.99-1.27-.66-2.29-1.61-3.07-2.85-.77-1.24-1.16-2.73-1.16-4.46s.39-3.24,1.16-4.47c.77-1.23,1.79-2.17,3.07-2.83,1.27-.66,2.65-.99,4.13-.99,1.23,0,2.26.16,3.08.48.82.32,1.5.66,2.02,1.02.42.27.63.64.63,1.1,0,.29-.11.57-.34.84-.23.27-.51.41-.84.41-.23,0-.46-.06-.69-.19-.54-.29-1.07-.53-1.6-.72-.52-.19-1.19-.28-2-.28-1.81,0-3.23.52-4.24,1.56-1.01,1.04-1.52,2.4-1.52,4.07s.51,3.02,1.52,4.07c1.01,1.04,2.42,1.56,4.24,1.56.81,0,1.48-.1,2-.3.52-.2,1.05-.43,1.6-.7.23-.13.46-.19.69-.19.33,0,.61.14.84.41.23.27.34.55.34.84,0,.46-.21.82-.63,1.1-.52.33-1.19.67-2.02,1-.82.33-1.85.5-3.08.5Z"/>
      <path class="cls-1" d="m109.51,22.84c-1.61,0-3.01-.35-4.22-1.05-1.21-.7-2.14-1.67-2.8-2.91-.66-1.24-.99-2.69-.99-4.33s.33-3.09.99-4.33c.66-1.24,1.59-2.21,2.8-2.91,1.21-.7,2.62-1.05,4.22-1.05s3.01.35,4.21,1.05c1.2.7,2.13,1.67,2.8,2.91.67,1.24,1,2.69,1,4.33s-.33,3.09-1,4.33c-.67,1.24-1.6,2.21-2.8,2.91-1.2.7-2.6,1.05-4.21,1.05Zm0-2.6c.79,0,1.58-.19,2.38-.56.79-.38,1.45-.99,1.99-1.83.53-.84.8-1.96.8-3.33s-.27-2.48-.8-3.32c-.53-.83-1.19-1.43-1.99-1.8-.79-.36-1.59-.55-2.38-.55s-1.59.18-2.39.55c-.8.37-1.47.96-1.99,1.8-.52.83-.78,1.94-.78,3.32s.26,2.49.78,3.33c.52.84,1.18,1.45,1.99,1.83.8.38,1.6.56,2.39.56Z"/>
      <path class="cls-1" d="m125.56,22.68c-.4,0-.75-.11-1.05-.34-.3-.23-.53-.5-.67-.81l-5.44-13.01c-.1-.25-.16-.47-.16-.66,0-.4.14-.74.41-1.02.27-.28.6-.42,1-.42.29,0,.56.08.8.23.24.16.4.35.48.58l4.79,12.14,4.79-12.14c.1-.23.28-.42.52-.58.24-.16.5-.23.77-.23.4,0,.73.14,1,.42.27.28.41.62.41,1.02,0,.19-.05.41-.16.66l-5.44,13.01c-.15.31-.37.58-.67.81-.3.23-.65.34-1.05.34h-.31Z"/>
      <path class="cls-1" d="m136.42,3.32c-.44,0-.81-.16-1.13-.47-.31-.31-.47-.69-.47-1.13v-.13c0-.44.16-.81.47-1.13.31-.31.69-.47,1.13-.47h.19c.44,0,.81.16,1.13.47.31.31.47.69.47,1.13v.13c0,.44-.16.81-.47,1.13-.31.31-.69.47-1.13.47h-.19Zm.06,19.37c-.4,0-.73-.14-1-.41-.27-.27-.41-.6-.41-1V7.85c0-.42.14-.76.41-1.03.27-.27.6-.41,1-.41.42,0,.76.14,1.03.41.27.27.41.62.41,1.03v13.42c0,.4-.14.73-.41,1-.27.27-.62.41-1.03.41Z"/>
      <path class="cls-1" d="m145.52,22.84c-.9,0-1.74-.19-2.52-.56-.78-.38-1.41-.91-1.88-1.61-.47-.7-.7-1.54-.7-2.52,0-1.48.59-2.7,1.77-3.64,1.18-.95,2.99-1.42,5.43-1.42h3.79v-.25c0-1.4-.34-2.39-1.03-2.99-.69-.59-1.74-.89-3.16-.89-.88,0-1.64.08-2.3.23-.66.16-1.28.33-1.86.52-.17.04-.3.06-.41.06-.31,0-.58-.11-.81-.34-.23-.23-.34-.51-.34-.84,0-.56.27-.96.81-1.19.73-.31,1.54-.58,2.42-.8.89-.22,1.88-.33,2.99-.33,1.52,0,2.76.3,3.72.91.96.61,1.67,1.38,2.13,2.32.46.94.69,1.92.69,2.94v8.85c0,.4-.14.73-.42,1-.28.27-.62.41-1.02.41s-.73-.14-1-.41c-.27-.27-.41-.6-.41-1v-.81c-.56.58-1.31,1.13-2.25,1.63-.94.5-2.15.75-3.63.75Zm1.06-2.5c.98,0,1.9-.24,2.75-.72.85-.48,1.54-1.02,2.06-1.63v-2.63h-3.41c-1.46,0-2.61.19-3.46.56-.84.38-1.27,1.01-1.27,1.91,0,.67.23,1.25.7,1.75.47.5,1.34.75,2.61.75Z"/>
    </g>
    <path class="cls-1" d="m156.5,6.4s-.08-.02-.11-.05c-.03-.03-.05-.07-.05-.11v-2.17s.02-.08.05-.12c.03-.03.07-.05.11-.05h.83c.23,0,.41.03.55.1.14.06.25.15.31.26.07.11.1.23.1.37s-.04.27-.12.39c-.08.12-.19.2-.35.26.1.03.18.07.24.14.06.07.1.14.13.23.03.09.05.17.06.25,0,.08.01.14.01.19v.16s-.02.08-.05.11c-.03.03-.07.05-.12.05-.05,0-.09-.02-.12-.05-.03-.03-.04-.07-.04-.12v-.11c0-.06,0-.13-.01-.21,0-.08-.03-.16-.06-.24-.03-.08-.09-.14-.16-.19-.07-.05-.18-.08-.31-.08h-.74v.82s-.01.08-.05.11c-.03.03-.07.05-.12.05m.16-1.29h.64c.2,0,.36-.04.48-.12.12-.08.18-.19.18-.34,0-.09-.02-.17-.06-.23-.04-.07-.11-.12-.21-.16-.1-.04-.24-.05-.41-.05h-.63v.9Z"/>
    <path class="cls-1" d="m157.31,7.84c-1.48,0-2.69-1.2-2.69-2.69s1.21-2.69,2.69-2.69,2.69,1.21,2.69,2.69-1.2,2.69-2.69,2.69m0-5.15c-1.36,0-2.47,1.11-2.47,2.46s1.11,2.47,2.47,2.47,2.46-1.11,2.46-2.47-1.11-2.46-2.46-2.46"/>
  </g>
  <rect class="cls-2" width="160" height="48"/>
</svg>