<svg width="256" height="49" viewBox="0 0 256 49" fill="none" xmlns="http://www.w3.org/2000/svg" aria-hidden="true">
<g clip-path="url(#clip0_dekko_logo)">
<path d="M95.3945 47.0012L76.7578 1.28959H89.0301L97.0842 23.041C100.069 31.2866 101.369 35.7041 102.145 38.627H102.278C102.992 35.9615 103.64 34.0143 107.924 22.1982L115.717 1.28959H127.599L108.638 47.0012H95.3945Z" fill="white"/>
<path d="M176.75 32.4567C174.674 40.5071 168.31 47.9762 153.962 47.9762C137.6 47.9762 129.741 36.6791 129.741 24.2112C129.741 11.6768 138.377 0.317383 154.543 0.317383C168.567 0.317383 175.517 8.10622 176.879 15.7041H165.649C164.673 13.105 162.207 8.88676 154.414 8.88676C145.845 8.88676 141.428 15.4425 141.428 23.7545C141.428 32.1951 145.455 39.4027 154.481 39.4027C160.974 39.4027 163.83 36.8701 165.649 32.4567H176.75Z" fill="white"/>
<path d="M57.127 1.28959H68.7391V22.4888C68.7391 23.5932 69.3162 24.627 70.2918 25.2747L73.2727 27.251C76.7518 29.5594 78.811 33.2504 78.811 37.1821V47.0012H67.1988V25.8352C67.1988 24.7308 66.6218 23.697 65.642 23.0493L62.6652 21.0731C59.1862 18.7646 57.127 15.0737 57.127 11.1419V1.28959Z" fill="white"/>
<path d="M0 1.28959H11.6121V22.4888C11.6121 23.5932 12.1892 24.627 13.1649 25.2747L16.1457 27.251C19.6248 29.5594 21.684 33.2504 21.684 37.1821V47.0012H10.0719V25.8352C10.0719 24.7308 9.4948 23.697 8.51501 23.0493L5.53829 21.0731C2.05921 18.7646 0 15.0737 0 11.1419V1.28959Z" fill="white"/>
<path d="M26.7016 1.28959H9.08203V9.79668H25.1447C34.3614 9.92539 38.7787 15.1858 38.7787 23.6264C38.7787 33.3666 33.9753 38.4318 25.0119 38.4318H17.9499L19.3117 47.0012H26.5065C39.8166 47.0012 50.532 37.9751 50.532 23.3649C50.532 11.2872 42.0917 1.28959 26.7016 1.28959Z" fill="white"/>
</g>
<defs>
<clipPath id="clip0_dekko_logo">
<rect width="256" height="48.6827" fill="white"/>
</clipPath>
</defs>
</svg>
