<svg width="256" height="49" viewBox="0 0 256 49" fill="none" xmlns="http://www.w3.org/2000/svg" aria-hidden="true">
<g clip-path="url(#clip0_ditech_logo)">
<path d="M76.6973 14.8529C76.6469 15.6415 76.5669 16.2937 76.5669 16.9489C76.5699 21.7899 76.5165 26.6339 76.644 31.4749C76.6884 33.1973 77.8416 34.0956 79.6558 34.0452C81.2951 33.9977 82.9403 34.0807 84.5796 34.0244C89.8265 33.8525 93.6446 30.1646 93.9085 25.0568C94.1871 19.6199 90.9382 15.4399 85.6735 14.9063C82.8039 14.6128 79.8751 14.8529 76.6973 14.8529ZM71.8002 10.5633C77.8742 10.9783 83.9126 9.66209 89.791 11.5149C95.9628 13.4626 99.0428 18.3007 98.8857 25.4333C98.7582 31.0866 94.8778 36.2508 89.0854 37.4573C85.4304 38.2192 81.5619 38.2607 77.803 38.1421C74.5689 38.0384 71.9751 35.6015 71.8743 32.471C71.6431 25.2851 71.8002 18.0902 71.8002 10.5633Z" fill="white"/>
<path d="M256 38.11H251.198V26.504H236.548V38.0745H231.672V10.7328H236.409V21.8586H251.163V10.7417H256V38.11Z" fill="white"/>
<path d="M163.1 10.7113H184.76V14.6333H168.071V22.0298H181.218V26.1682H167.988C167.988 28.2879 167.804 30.2089 168.041 32.0765C168.26 33.7841 169.746 34.1487 171.272 34.1487C175.076 34.1517 178.879 34.1546 182.679 34.1546C183.486 34.1546 184.292 34.1546 185.255 34.1546V38.1982C179.733 38.1982 174.299 38.3998 168.886 38.1241C165.69 37.9611 163.239 35.5035 163.162 32.5004C162.972 25.3026 163.1 18.0988 163.1 10.7113Z" fill="white"/>
<path d="M220.514 14.7317C219.465 15.7307 218.51 16.6408 217.586 17.5213C211.518 13.6111 205.79 13.703 202.298 17.6754C199.061 21.3544 198.966 27.1322 202.076 30.8082C205.784 35.1898 211.082 35.3706 217.606 31.2559C218.546 32.1334 219.509 33.0346 220.461 33.9239C216.554 39.6069 205.965 40.2976 199.868 35.3854C193.542 30.2894 192.987 20.3791 198.7 14.5509C204.593 8.54476 215.093 8.51808 220.514 14.7317Z" fill="white"/>
<path d="M151.233 10.8067V14.6309H142.363C142.313 15.7426 142.245 16.6053 142.245 17.4679C142.236 23.5007 142.147 29.5365 142.289 35.5663C142.34 37.6948 141.764 38.6108 139.583 38.2758C138.865 38.1661 138.127 38.1958 137.202 38.1513V14.7821H127.844V10.8067H151.233Z" fill="white"/>
<path d="M110.795 10.4662H115.897V38.3237H110.795V10.4662Z" fill="white"/>
<path d="M5.74543 6.50679C5.15255 4.98007 4.63379 3.64901 4.0498 2.146C7.44401 0.806044 10.8501 0.127171 14.3391 0.0738068C20.8815 -0.0210571 27.4298 -0.0240211 33.9722 0.0619507C45.7378 0.21907 56.4807 10.7579 56.9668 22.5092C57.1032 25.782 56.9312 29.0074 55.6832 32.2862C54.2633 31.7941 52.7663 31.2931 51.3404 30.8009C51.7851 29.2209 52.0726 27.6823 52.2268 26.1407C53.4807 13.3756 42.4532 4.23005 32.819 4.79627C29.1491 5.01268 25.4585 4.81406 21.7768 4.83777C16.4231 4.87335 11.019 4.33381 5.74543 6.50679Z" fill="white"/>
<path d="M7.72685 25.0386C8.68434 26.2007 9.63294 27.3747 10.6112 28.5634C8.46497 30.6564 7.34444 33.0962 7.54898 36.0992C7.83356 40.291 11.5301 43.8959 15.7425 43.9137C21.8195 43.9374 27.8994 44.0411 33.9734 43.8899C38.8409 43.7714 42.9762 41.6992 46.4682 38.3463C47.0077 37.8275 47.4791 37.2346 48.069 36.5795C49.3377 37.5755 50.4731 38.4679 51.727 39.4491C49.3585 42.6122 46.3763 44.8801 42.8873 46.4631C39.6176 47.9424 36.1789 48.728 32.5416 48.6806C26.933 48.6094 21.3215 48.6806 15.7129 48.6598C10.5608 48.642 5.51839 45.0728 3.69826 40.1991C1.72103 34.9075 3.11428 28.9874 7.16954 25.4863C7.29701 25.3795 7.56677 25.1394 7.72685 25.0386Z" fill="white"/>
<path d="M32.9197 15.6607V11.0716C39.8771 11.1991 45.5331 16.6123 45.9629 23.2202C46.5321 31.9596 39.7704 37.2809 34.313 37.5121C28.3694 37.767 22.414 37.7285 16.4645 37.7374C14.7392 37.7404 13.9062 36.8095 13.9151 35.2917C13.924 33.7738 14.76 33.012 16.5534 33.006C21.7499 32.9853 26.9435 33.009 32.1401 32.9942C37.1024 32.9823 40.9472 29.6739 41.2644 25.1768C41.6142 20.232 38.6113 16.5886 33.4651 15.7141C33.3021 15.6874 33.1331 15.6696 32.9197 15.6607Z" fill="white"/>
<path d="M26.3681 10.99V15.7154C25.6359 15.7154 24.9067 15.6828 24.1804 15.7184C19.7664 15.9437 15.2902 15.8043 10.9682 16.5544C8.21428 17.0287 4.743 18.8963 2.94955 20.3786C2.30035 19.6671 1.07903 18.3805 0 17.2006C7.61844 10.0443 16.9444 10.7854 26.3681 10.99Z" fill="white"/>
<path d="M16.1748 26.5247V22.0572C16.1748 22.0572 27.1874 22.0423 31.9127 22.0512C33.9848 22.0572 34.9749 22.7864 35.0104 24.2894C35.046 25.828 33.9877 26.6047 31.8267 26.6047C27.2171 26.6106 22.6075 26.6106 17.9979 26.6047C17.4287 26.6018 16.8596 26.5543 16.1748 26.5247Z" fill="white"/>
</g>
<defs>
<clipPath id="clip0_ditech_logo">
<rect width="256" height="48.6827" fill="white"/>
</clipPath>
</defs>
</svg>
