<svg width="256" height="49" viewBox="0 0 256 49" fill="none" xmlns="http://www.w3.org/2000/svg" aria-hidden="true">
<g clip-path="url(#clip0_ecovia_logo)">
<path d="M96.5837 41.5247C96.5099 41.58 96.4761 41.5616 96.4546 41.5063C96.5437 41.5063 96.5837 41.5247 96.5837 41.5247Z" fill="white"/>
<path d="M5.88321 26.6453H24.7531C24.624 24.429 24.0585 22.6369 23.0564 21.2721C22.0544 19.9073 20.8494 18.9052 19.4447 18.2658C18.0369 17.6264 16.6507 17.3067 15.2859 17.3067C13.9211 17.3067 12.5349 17.6264 11.1271 18.2658C9.72236 18.9052 8.52666 19.9073 7.54612 21.2721C6.56559 22.6369 6.01231 24.429 5.88321 26.6453ZM16.5646 46.2815C11.3607 46.2815 7.30022 44.8029 4.38013 41.8366C1.46004 38.8733 0 34.7051 0 29.3319C0 26.4332 0.531764 23.6943 1.59836 21.1122C2.66189 18.5332 4.32481 16.4337 6.58711 14.8107C8.84633 13.1907 11.7449 12.3823 15.2859 12.3823C18.5687 12.3823 21.3412 13.1385 23.6005 14.6509C25.8597 16.1663 27.5779 18.1367 28.749 20.5681C29.9232 22.9996 30.5103 25.6432 30.5103 28.4989C30.5103 29.3104 30.2429 29.9928 29.7081 30.5461C29.1763 31.1025 28.4632 31.3791 27.5656 31.3791H5.88321C6.2244 34.2379 7.31252 36.5279 9.14449 38.2555C10.9795 39.983 13.623 40.8468 17.0779 40.8468C18.9959 40.8468 20.6158 40.6654 21.9376 40.3027C23.2593 39.94 24.5165 39.4604 25.7122 38.8641C26.0533 38.692 26.4376 38.6059 26.8617 38.6059C27.5441 38.6059 28.1435 38.8426 28.6538 39.3098C29.1671 39.7801 29.4222 40.3765 29.4222 41.1019C29.4222 41.6122 29.2624 42.0733 28.9427 42.476C28.623 42.8817 28.2265 43.2137 27.7593 43.4688C26.3515 44.2803 24.8269 44.9505 23.1855 45.4822C21.5441 46.0171 19.3371 46.2815 16.5646 46.2815Z" fill="white"/>
<path d="M50.4656 46.2829C47.4379 46.2829 44.6224 45.6128 42.0219 44.2695C39.4215 42.9261 37.3314 40.9834 35.7545 38.4475C34.1746 35.9115 33.3877 32.8714 33.3877 29.3333C33.3877 25.7491 34.1746 22.7028 35.7545 20.1853C37.3314 17.6678 39.4215 15.7404 42.0219 14.3971C44.6224 13.0538 47.4379 12.3806 50.4656 12.3806C52.98 12.3806 55.0793 12.7126 56.7669 13.3735C58.4513 14.0344 59.8253 14.726 60.8919 15.4515C61.7433 16.0048 62.1706 16.7517 62.1706 17.6893C62.1706 18.2887 61.9369 18.8635 61.4667 19.4168C60.9964 19.9732 60.4216 20.2499 59.7392 20.2499C59.272 20.2499 58.8017 20.1208 58.3345 19.8656C57.2248 19.2693 56.1367 18.7775 55.0701 18.3932C54.0035 18.009 52.6388 17.8184 50.9759 17.8184C47.2689 17.8184 44.3795 18.885 42.3109 21.0153C40.2422 23.1486 39.2094 25.9212 39.2094 29.3333C39.2094 32.7453 40.2422 35.5149 42.3109 37.6482C44.3795 39.7815 47.2689 40.8451 50.9759 40.8451C52.6388 40.8451 54.0035 40.6453 55.0701 40.2395C56.1367 39.8338 57.2248 39.3543 58.3345 38.7979C58.8017 38.5427 59.272 38.4167 59.7392 38.4167C60.4216 38.4167 60.9964 38.6934 61.4667 39.2467C61.9369 39.8 62.1706 40.3779 62.1706 40.9742C62.1706 41.9118 61.7433 42.6587 60.8919 43.212C59.8253 43.8944 58.4513 44.5768 56.7669 45.2593C55.0793 45.9417 52.98 46.2829 50.4656 46.2829Z" fill="white"/>
<path d="M80.7832 40.9736C82.4031 40.9736 84.023 40.5894 85.6459 39.8209C87.2658 39.0555 88.6183 37.8075 89.7064 36.08C90.7945 34.3524 91.3386 32.0839 91.3386 29.2682C91.3386 26.4524 90.7945 24.1931 89.7064 22.4871C88.6183 20.7811 87.2658 19.5576 85.6459 18.8107C84.023 18.0637 82.4031 17.6887 80.7832 17.6887C79.1633 17.6887 77.5311 18.0637 75.8897 18.8107C74.2483 19.5576 72.8928 20.7811 71.8293 22.4871C70.7627 24.1931 70.2278 26.4524 70.2278 29.2682C70.2278 32.0839 70.7627 34.3524 71.8293 36.08C72.8928 37.8075 74.2483 39.0555 75.8897 39.8209C77.5311 40.5894 79.1633 40.9736 80.7832 40.9736ZM80.7832 46.2823C77.5004 46.2823 74.6203 45.5691 72.149 44.1398C69.6746 42.7104 67.7657 40.7277 66.4225 38.1917C65.0793 35.6558 64.4092 32.7017 64.4092 29.3327C64.4092 25.9637 65.0793 23.0097 66.4225 20.4737C67.7657 17.9346 69.6746 15.9519 72.149 14.5226C74.6203 13.0963 77.5004 12.3801 80.7832 12.3801C84.066 12.3801 86.9338 13.0963 89.3867 14.5226C91.8365 15.9519 93.7453 17.9346 95.1101 20.4737C96.4748 23.0097 97.1572 25.9637 97.1572 29.3327C97.1572 32.7017 96.4748 35.6558 95.1101 38.1917C93.7453 40.7277 91.8365 42.7104 89.3867 44.1398C86.9338 45.5691 84.066 46.2823 80.7832 46.2823Z" fill="white"/>
<path d="M113.595 45.963C112.784 45.963 112.071 45.7294 111.453 45.2591C110.835 44.7918 110.374 44.2354 110.079 43.5961L98.9486 16.9852C98.7334 16.4749 98.6289 16.0261 98.6289 15.6419C98.6289 14.8334 98.9055 14.1387 99.4588 13.5639C100.012 12.9891 100.694 12.7001 101.506 12.7001C102.102 12.7001 102.646 12.86 103.138 13.1797C103.627 13.4993 103.959 13.8959 104.128 14.3631L113.915 39.1819L123.702 14.3631C123.914 13.8959 124.267 13.4993 124.756 13.1797C125.248 12.86 125.77 12.7001 126.324 12.7001C127.132 12.7001 127.818 12.9891 128.371 13.5639C128.924 14.1387 129.204 14.8334 129.204 15.6419C129.204 16.0261 129.096 16.4749 128.881 16.9852L117.754 43.5961C117.453 44.2354 116.995 44.7918 116.377 45.2591C115.759 45.7294 115.043 45.963 114.234 45.963H113.595Z" fill="white"/>
<path d="M135.919 45.963C135.107 45.963 134.425 45.6863 133.872 45.13C133.318 44.5766 133.042 43.8942 133.042 43.0858V15.6419C133.042 14.7904 133.318 14.0865 133.872 13.5332C134.425 12.9798 135.107 12.7001 135.919 12.7001C136.77 12.7001 137.474 12.9798 138.03 13.5332C138.584 14.0865 138.86 14.7904 138.86 15.6419V43.0858C138.86 43.8942 138.584 44.5766 138.03 45.13C137.474 45.6863 136.77 45.963 135.919 45.963ZM135.79 6.36786C134.895 6.36786 134.127 6.04816 133.487 5.40879C132.848 4.76942 132.528 4.00093 132.528 3.10643V2.85129C132.528 1.95371 132.848 1.18523 133.487 0.545853C134.127 -0.0935211 134.895 -0.413208 135.79 -0.413208H136.174C137.071 -0.413208 137.837 -0.0935211 138.476 0.545853C139.115 1.18523 139.435 1.95371 139.435 2.85129V3.10643C139.435 4.00093 139.115 4.76942 138.476 5.40879C137.837 6.04816 137.071 6.36786 136.174 6.36786H135.79Z" fill="white"/>
<path d="M156.578 41.1656C158.583 41.1656 160.458 40.6769 162.207 39.6932C163.955 38.7126 165.363 37.606 166.43 36.3672V30.994H159.455C156.471 30.994 154.116 31.3783 152.389 32.1467C150.661 32.9152 149.798 34.2155 149.798 36.0475C149.798 37.4124 150.277 38.6081 151.236 39.6317C152.198 40.6553 153.978 41.1656 156.578 41.1656ZM154.402 46.2837C152.57 46.2837 150.855 45.8995 149.254 45.131C147.655 44.3625 146.377 43.2651 145.418 41.8357C144.459 40.4094 143.979 38.6942 143.979 36.6869C143.979 33.6591 145.181 31.1785 147.591 29.2357C150.001 27.2961 153.701 26.3247 158.69 26.3247H166.43V25.8145C166.43 22.9557 165.726 20.9208 164.318 19.7035C162.91 18.4893 160.756 17.8807 157.857 17.8807C156.065 17.8807 154.501 18.0405 153.157 18.3602C151.814 18.683 150.545 19.0334 149.352 19.4177C149.008 19.5037 148.731 19.5437 148.519 19.5437C147.88 19.5437 147.323 19.3101 146.856 18.8428C146.386 18.3725 146.152 17.7977 146.152 17.1153C146.152 15.9626 146.705 15.1541 147.815 14.6838C149.309 14.0444 150.96 13.5004 152.773 13.0516C154.584 12.6059 156.621 12.3815 158.881 12.3815C161.994 12.3815 164.53 12.9993 166.491 14.235C168.452 15.4738 169.903 17.0507 170.841 18.9689C171.778 20.887 172.249 22.8943 172.249 24.9814V43.0837C172.249 43.8953 171.963 44.5777 171.385 45.131C170.81 45.6843 170.115 45.964 169.307 45.964C168.495 45.964 167.813 45.6843 167.26 45.131C166.707 44.5777 166.43 43.8953 166.43 43.0837V41.4208C165.277 42.6165 163.743 43.7231 161.822 44.7467C159.904 45.7703 157.43 46.2837 154.402 46.2837Z" fill="white"/>
<path d="M177.169 10.0424H178.484C178.89 10.0424 179.219 9.96247 179.468 9.80262C179.717 9.64278 179.843 9.40916 179.843 9.10177C179.843 8.92041 179.8 8.76364 179.72 8.62531C179.634 8.49006 179.496 8.38862 179.29 8.3087C179.09 8.238 178.807 8.19804 178.447 8.19804H177.169V10.0424ZM176.837 12.6798C176.741 12.6798 176.668 12.6491 176.603 12.5845C176.542 12.52 176.508 12.4462 176.508 12.3509V7.90909C176.508 7.81687 176.542 7.74003 176.603 7.6724C176.668 7.60477 176.741 7.57403 176.837 7.57403H178.527C178.988 7.57403 179.363 7.63859 179.652 7.77076C179.941 7.90294 180.156 8.07816 180.295 8.2964C180.436 8.51773 180.501 8.76979 180.501 9.04644C180.501 9.32924 180.424 9.5936 180.267 9.83336C180.113 10.0762 179.871 10.2514 179.551 10.3621C179.754 10.4174 179.917 10.5096 180.037 10.648C180.156 10.7894 180.252 10.943 180.307 11.1183C180.372 11.2935 180.412 11.4625 180.433 11.6224C180.451 11.7853 180.458 11.9175 180.458 12.0158V12.3509C180.458 12.4462 180.427 12.52 180.365 12.5845C180.301 12.6491 180.224 12.6798 180.129 12.6798C180.03 12.6798 179.947 12.6491 179.886 12.5876C179.827 12.5261 179.797 12.4493 179.797 12.3509V12.1357C179.797 12.0128 179.788 11.8683 179.772 11.7054C179.757 11.5425 179.714 11.3795 179.643 11.2197C179.579 11.0599 179.468 10.9277 179.314 10.8232C179.164 10.7187 178.948 10.6664 178.672 10.6664H177.169V12.3509C177.169 12.4462 177.138 12.52 177.073 12.5845C177.006 12.6491 176.926 12.6798 176.837 12.6798Z" fill="white"/>
<path d="M178.507 5.08679C175.725 5.08679 173.466 7.34919 173.466 10.1249C173.466 12.9068 175.725 15.1662 178.507 15.1662C181.286 15.1662 183.545 12.9068 183.545 10.1249C183.545 7.34919 181.286 5.08679 178.507 5.08679ZM178.507 15.6242C175.476 15.6242 173.011 13.1589 173.011 10.1249C173.011 7.09713 175.476 4.63185 178.507 4.63185C181.538 4.63185 184 7.09713 184 10.1249C184 13.1589 181.538 15.6242 178.507 15.6242Z" fill="white"/>
</g>
<defs>
<clipPath id="clip0_ecovia_logo">
<rect width="256" height="48.6827" fill="white"/>
</clipPath>
</defs>
</svg>
