<svg width="190" height="49" viewBox="0 0 190 49" fill="none" xmlns="http://www.w3.org/2000/svg" aria-hidden="true">
  <path d="M31.503 46.8832H0V-0.36441H31.503V46.8832Z" fill="white"/>
  <path d="M136.122 46.8832H90.1934V-0.36441H136.122V46.8832Z" fill="white"/>
  <path d="M190 23.3624C190 36.3523 179.47 46.8828 166.481 46.8828C153.492 46.8828 142.958 36.3523 142.958 23.3624C142.958 10.3725 153.492 -0.158039 166.481 -0.158039C179.47 -0.158039 190 10.3725 190 23.3624Z" fill="white"/>
  <path d="M63.1835 -0.31765C48.6236 0.549313 37.5204 13.0568 38.3873 27.6174C38.8553 35.5071 42.7437 42.3812 48.522 46.8828L83.3585 7.30364C78.2078 2.19618 70.9931 -0.781963 63.1835 -0.31765Z" fill="white"/>
</svg>
