<svg width="256" height="49" viewBox="0 0 256 49" fill="none" xmlns="http://www.w3.org/2000/svg" aria-hidden="true">
<path d="M0 45.1869L8.7092 4.27007H20.172L11.4598 45.1869H0Z" fill="#E70B89"/>
<path d="M15.8728 37.3361L33.0071 13.5544H21.7746L23.7807 4.27077H48.3058L46.5867 12.2359L29.1085 35.904H41.4861L39.5398 45.1876H14.2104L15.8728 37.3361Z" fill="#E70B89"/>
<path d="M62.8604 30.0009L64.0055 13.2096H63.8919L57.6463 30.0009H62.8604ZM62.1728 45.1866L62.2296 38.9407H54.5519L52.0883 45.1866H40.2847L58.6777 4.26973H73.0615L73.9764 45.1866H62.1728Z" fill="#E70B89"/>
<path d="M92.772 19.8578L102.686 4.27144H115.121L101.197 22.2647L107.67 45.1883H94.7781L91.7973 31.6052L89.5072 34.7565L87.2708 45.1883H75.811L84.5202 4.27144H95.98L92.6584 19.8578H92.772Z" fill="#E70B89"/>
<path d="M128.644 30.0009L129.789 13.2096H129.675L123.429 30.0009H128.644ZM127.956 45.1866L128.013 38.9407H120.335L117.871 45.1866H106.068L124.461 4.26973H138.845L139.76 45.1866H127.956Z" fill="#E70B89"/>
<path d="M162.853 4.2704H175.288L159.702 29.0836L156.264 45.1873H144.804L148.242 29.0836L143.199 4.2704H156.034L156.264 18.5382L162.853 4.2704Z" fill="#E70B89"/>
<path d="M183.884 30.0009L185.029 13.2096H184.915L178.67 30.0009H183.884ZM183.196 45.1866L183.253 38.9407H175.575L173.112 45.1866H161.308L179.701 4.26973H194.085L195 45.1866H183.196Z" fill="#E70B89"/>
</svg>
