<svg width="256" height="49" viewBox="0 0 256 49" fill="none" xmlns="http://www.w3.org/2000/svg" aria-hidden="true">
<g clip-path="url(#clip0_klubhaus_logo)">
<path d="M256 41.1534H0V5.95212H256V41.1534Z" fill="#FFC90D"/>
<path d="M28.8701 33.0475H32.6392L25.9426 21.6337L31.8362 13.9578H27.9248L20.8882 23.7438V13.9578H17.751V33.0475H20.8882V28.2124L23.8157 24.4021L28.8701 33.0475Z" fill="#231F20"/>
<path d="M49.3694 30.041H60.4234V33.0482H49.3694V30.041ZM47.8984 13.9585H51.0357V33.0482H47.8984V13.9585Z" fill="#231F20"/>
<path d="M78.2974 32.4109C77.2726 31.8563 76.4937 31.046 75.9608 29.9825C75.4278 28.919 75.1602 27.6385 75.1602 26.1409V13.9578H78.2974V26.235C78.2974 27.4769 78.6181 28.4391 79.262 29.1216C79.9059 29.804 80.8126 30.1465 81.9869 30.1465C83.1685 30.1465 84.0825 29.804 84.7311 29.1216C85.3774 28.4391 85.7005 27.4769 85.7005 26.235V13.9578H88.8402V26.1409C88.8402 27.6385 88.5701 28.919 88.0324 29.9825C87.4946 31.046 86.7133 31.8563 85.6885 32.4109C84.6636 32.968 83.4314 33.2453 81.9869 33.2453C80.5521 33.2453 79.3223 32.968 78.2974 32.4109Z" fill="#231F20"/>
<path d="M115.864 27.4679C115.864 28.2902 115.597 28.9317 115.064 29.3923C114.528 29.8505 113.716 30.0796 112.621 30.0796H108.538V24.7236H112.949C113.597 24.7236 114.14 24.8321 114.577 25.0467C115.015 25.2614 115.339 25.5676 115.548 25.9703C115.758 26.3731 115.864 26.8602 115.864 27.4293V27.4679ZM112.766 16.9247C113.701 16.9247 114.41 17.1296 114.892 17.5372C115.375 17.9423 115.616 18.5404 115.616 19.329C115.616 20.1248 115.387 20.7325 114.931 21.1521C114.478 21.5741 113.817 21.7839 112.949 21.7839H108.538V16.9247H112.766ZM118.567 25.6496C118.261 25.0057 117.82 24.4776 117.244 24.0604C116.665 23.6456 115.973 23.3804 115.167 23.267C115.946 23.1271 116.607 22.8643 117.145 22.4784C117.682 22.095 118.09 21.6151 118.365 21.0412C118.64 20.4696 118.777 19.8306 118.777 19.1312C118.777 18.0557 118.563 17.132 118.129 16.3604C117.695 15.5911 117.053 14.9978 116.199 14.5831C115.346 14.1659 114.302 13.9585 113.067 13.9585H108.538H106.99H105.413V33.0482H106.99H108.538H113.291C114.473 33.0482 115.495 32.8384 116.356 32.4164C117.219 31.9968 117.88 31.3963 118.338 30.6126C118.799 29.8288 119.028 28.9076 119.028 27.8489V27.8104C119.028 27.0121 118.874 26.2935 118.567 25.6496Z" fill="#231F20"/>
<path d="M146.053 13.9588V22.1122H138.544V13.9588H135.406V33.0485H138.544V25.117H146.053V33.0485H149.19V13.9588H146.053Z" fill="#231F20"/>
<path d="M198.338 32.4109C197.314 31.8563 196.535 31.046 196.002 29.9825C195.469 28.919 195.201 27.6385 195.201 26.1409V13.9578H198.338V26.235C198.338 27.4769 198.659 28.4391 199.303 29.1216C199.947 29.804 200.854 30.1465 202.028 30.1465C203.21 30.1465 204.123 29.804 204.772 29.1216C205.418 28.4391 205.742 27.4769 205.742 26.235V13.9578H208.881V26.1409C208.881 27.6385 208.611 28.919 208.073 29.9825C207.536 31.046 206.754 31.8563 205.729 32.4109C204.707 32.968 203.472 33.2453 202.028 33.2453C200.593 33.2453 199.363 32.968 198.338 32.4109Z" fill="#231F20"/>
<path d="M228.416 32.9754C227.572 32.7969 226.779 32.5316 226.041 32.182C225.3 31.8299 224.623 31.3982 224.013 30.8821L225.679 28.3741C226.414 28.9963 227.239 29.4666 228.153 29.7849C229.067 30.1056 230.036 30.2648 231.061 30.2648C232.339 30.2648 233.33 30.0357 234.035 29.5823C234.739 29.1265 235.091 28.4827 235.091 27.6507V27.6386C235.091 27.0526 234.934 26.5872 234.618 26.2399C234.305 25.8951 233.892 25.6419 233.386 25.4779C232.877 25.3163 232.226 25.1668 231.428 25.0269C231.404 25.0173 231.377 25.0125 231.351 25.0125C231.324 25.0125 231.298 25.0076 231.271 25.0004L231.035 24.9594C229.757 24.7496 228.708 24.5012 227.883 24.2118C227.061 23.9224 226.361 23.4064 225.783 22.6636C225.206 21.9184 224.917 20.8646 224.917 19.4997V19.4852C224.917 18.277 225.189 17.2449 225.732 16.3864C226.275 15.5303 227.061 14.8767 228.095 14.4306C229.127 13.9845 230.369 13.7626 231.823 13.7626C232.506 13.7626 233.191 13.8374 233.878 13.9917C234.565 14.1436 235.238 14.3679 235.899 14.6621C236.559 14.9539 237.201 15.3205 237.823 15.757L236.299 18.3445C235.563 17.8188 234.816 17.4209 234.054 17.1484C233.292 16.8783 232.549 16.7409 231.823 16.7409C230.615 16.7409 229.68 16.9627 229.019 17.404C228.358 17.8478 228.028 18.4699 228.028 19.2754V19.2899C228.028 19.8928 228.199 20.3702 228.541 20.7199C228.881 21.0696 229.308 21.3252 229.819 21.4868C230.333 21.6508 231.049 21.822 231.968 22.0077C232.002 22.0149 232.036 22.0221 232.064 22.027C232.096 22.0318 232.13 22.0366 232.163 22.0463C232.207 22.0559 232.255 22.0631 232.308 22.0728C232.361 22.08 232.409 22.0897 232.453 22.0993C233.634 22.3356 234.621 22.6202 235.414 22.9506C236.205 23.2834 236.868 23.8187 237.401 24.5543C237.936 25.2874 238.202 26.2906 238.202 27.559V27.5856C238.202 28.7769 237.922 29.7969 237.362 30.6458C236.803 31.4947 235.988 32.1386 234.922 32.5823C233.854 33.0236 232.566 33.2455 231.061 33.2455C230.143 33.2455 229.26 33.1538 228.416 32.9754Z" fill="#231F20"/>
<path d="M183.035 19.533L172.594 12.9688L162.152 19.533V23.4107V33.8503H172.594H183.035V23.4107V19.533Z" fill="#1E9BD7"/>
</g>
<defs>
<clipPath id="clip0_klubhaus_logo">
<rect width="256" height="48.6827" fill="white"/>
</clipPath>
</defs>
</svg>
