<svg width="1820" height="200" viewBox="0 0 1820 200" fill="none" xmlns="http://www.w3.org/2000/svg">
<path d="M0 228.546V2.45418H75.0152C89.9466 2.45418 104.009 4.85724 117.202 9.66335C130.497 14.4695 142.156 21.6275 152.178 31.1375C162.303 40.5452 170.229 52.1514 175.956 65.9562C181.683 79.761 184.547 95.662 184.547 113.659C184.547 131.963 181.683 148.274 175.956 162.59C170.229 176.803 162.405 188.819 152.485 198.635C142.667 208.452 131.315 215.917 118.429 221.03C105.645 226.041 92.0943 228.546 77.7765 228.546H0ZM37.7377 194.647H78.3901C86.9808 194.647 95.3158 192.96 103.395 189.586C111.577 186.109 118.94 180.945 125.486 174.094C132.031 167.242 137.195 158.806 140.979 148.785C144.866 138.661 146.809 126.953 146.809 113.659C146.809 100.673 144.866 89.322 140.979 79.6076C137.195 69.8931 132.031 61.8659 125.486 55.5259C118.94 49.0837 111.577 44.2776 103.395 41.1076C95.3158 37.9376 86.9808 36.3526 78.3901 36.3526H37.7377V194.647Z" fill="white"/>
<path d="M219.063 228.546V2.45418H346.849V36.3526H256.8V97.247H331.969V130.532H256.8V194.647H346.849V228.546H219.063Z" fill="white"/>
<path d="M386.888 228.546V2.45418H424.626V105.376H434.751L420.484 111.819L511.146 2.45418H558.088L455 124.703V105.07L563.304 228.546H516.055L420.484 119.948L434.751 126.084H424.626V228.546H386.888Z" fill="white"/>
<path d="M589.69 228.546V2.45418H627.427V105.376H637.552L623.286 111.819L713.948 2.45418H760.89L657.802 124.703V105.07L766.106 228.546H718.857L623.286 119.948L637.552 126.084H627.427V228.546H589.69Z" fill="white"/>
<path d="M878.552 231C862.495 231 847.564 228.137 833.758 222.41C819.951 216.582 807.883 208.452 797.554 198.022C787.225 187.489 779.145 175.218 773.316 161.209C767.589 147.098 764.725 131.81 764.725 115.347C764.725 98.9854 767.589 83.8001 773.316 69.7908C779.043 55.7815 787.02 43.5618 797.247 33.1315C807.576 22.7012 819.593 14.5717 833.297 8.74303C847.104 2.91434 862.035 0 878.092 0C894.353 0 909.386 2.91434 923.193 8.74303C936.999 14.5717 949.016 22.7012 959.243 33.1315C969.572 43.5618 977.601 55.8327 983.328 69.9442C989.055 83.9535 991.918 99.1388 991.918 115.5C991.918 131.963 989.055 147.2 983.328 161.209C977.601 175.218 969.572 187.489 959.243 198.022C949.016 208.452 936.999 216.582 923.193 222.41C909.489 228.137 894.608 231 878.552 231ZM878.092 196.641C888.932 196.641 899.006 194.596 908.313 190.506C917.619 186.416 925.698 180.689 932.551 173.327C939.403 165.964 944.721 157.323 948.505 147.404C952.391 137.485 954.334 126.799 954.334 115.347C954.334 103.587 952.391 92.7988 948.505 82.9821C944.618 73.1653 939.198 64.6268 932.244 57.3665C925.392 50.004 917.312 44.3287 908.006 40.3406C898.699 36.3526 888.728 34.3586 878.092 34.3586C867.456 34.3586 857.535 36.3526 848.331 40.3406C839.229 44.3287 831.201 50.004 824.246 57.3665C817.394 64.6268 812.025 73.1653 808.139 82.9821C804.253 92.7988 802.31 103.587 802.31 115.347C802.31 126.902 804.202 137.639 807.986 147.558C811.872 157.477 817.19 166.118 823.94 173.48C830.792 180.74 838.82 186.416 848.024 190.506C857.229 194.596 867.251 196.641 878.092 196.641Z" fill="white"/>
<path d="M1109.27 228.546V2.45418H1146.86V228.546H1109.27Z" fill="white"/>
<path d="M1266.36 231C1253.78 231 1242.07 228.546 1231.23 223.637C1220.49 218.627 1211.34 212.082 1203.77 204.004C1196.2 195.823 1190.89 187.131 1187.82 177.928L1223.25 162.896C1225.2 168.521 1228.11 173.94 1232 179.155C1235.99 184.268 1240.79 188.461 1246.42 191.733C1252.14 195.005 1258.59 196.641 1265.75 196.641C1271.99 196.641 1277.81 195.312 1283.23 192.653C1288.66 189.995 1293 186.313 1296.27 181.61C1299.65 176.803 1301.34 171.435 1301.34 165.504C1301.34 159.164 1299.6 153.795 1296.12 149.398C1292.64 144.899 1288.3 141.167 1283.08 138.201C1277.97 135.236 1272.7 132.782 1267.28 130.839C1261.96 128.794 1257.31 127.106 1253.32 125.777C1243.2 122.3 1233.74 117.801 1224.94 112.279C1216.15 106.655 1209.04 99.5989 1203.62 91.1116C1198.2 82.6242 1195.49 72.2962 1195.49 60.1275C1195.49 47.8566 1198.3 37.2218 1203.92 28.2231C1209.65 19.2244 1217.53 12.2709 1227.55 7.36255C1237.67 2.45418 1249.28 0 1262.37 0C1274.64 0 1285.38 1.99402 1294.59 5.98207C1303.79 9.97012 1311.51 15.2875 1317.75 21.9343C1324.09 28.4788 1328.9 35.5857 1332.17 43.255L1297.96 57.0598C1296.53 54.0943 1294.23 50.822 1291.06 47.243C1287.99 43.664 1284.05 40.5452 1279.25 37.8865C1274.54 35.2278 1269.02 33.8984 1262.68 33.8984C1255.11 33.8984 1248.21 36.1481 1241.97 40.6474C1235.73 45.0445 1232.61 51.6401 1232.61 60.4343C1232.61 66.3652 1234.09 71.427 1237.06 75.6195C1240.13 79.8121 1243.96 83.3911 1248.57 86.3566C1253.17 89.2198 1257.92 91.6228 1262.83 93.5657C1267.84 95.5086 1272.29 97.1448 1276.18 98.4741C1280.68 99.9057 1286.41 102.104 1293.36 105.07C1300.31 107.933 1307.22 111.87 1314.07 116.88C1320.92 121.891 1326.7 128.282 1331.4 136.054C1336.11 143.825 1338.46 153.335 1338.46 164.584C1338.46 177.366 1335.19 188.768 1328.64 198.789C1322.2 208.81 1313.51 216.684 1302.56 222.41C1291.72 228.137 1279.66 231 1266.36 231Z" fill="white"/>
<path d="M1377.58 228.546V2.45418H1415.32V96.6335H1520.4V2.45418H1558.14V228.546H1520.4V130.532H1415.32V228.546H1377.58Z" fill="white"/>
<path d="M1706.63 231C1690.58 231 1675.65 228.137 1661.84 222.41C1648.03 216.582 1635.96 208.452 1625.64 198.022C1615.31 187.489 1607.23 175.218 1601.4 161.209C1595.67 147.098 1592.81 131.81 1592.81 115.347C1592.81 98.9854 1595.67 83.8001 1601.4 69.7908C1607.12 55.7815 1615.1 43.5618 1625.33 33.1315C1635.66 22.7012 1647.67 14.5717 1661.38 8.74303C1675.19 2.91434 1690.12 0 1706.17 0C1722.43 0 1737.47 2.91434 1751.27 8.74303C1765.08 14.5717 1777.1 22.7012 1787.32 33.1315C1797.65 43.5618 1805.68 55.8327 1811.41 69.9442C1817.14 83.9535 1820 99.1388 1820 115.5C1820 131.963 1817.14 147.2 1811.41 161.209C1805.68 175.218 1797.65 187.489 1787.32 198.022C1777.1 208.452 1765.08 216.582 1751.27 222.41C1737.57 228.137 1722.69 231 1706.63 231ZM1706.17 196.641C1717.01 196.641 1727.09 194.596 1736.39 190.506C1745.7 186.416 1753.78 180.689 1760.63 173.327C1767.48 165.964 1772.8 157.323 1776.59 147.404C1780.47 137.485 1782.42 126.799 1782.42 115.347C1782.42 103.587 1780.47 92.7988 1776.59 82.9821C1772.7 73.1653 1767.28 64.6268 1760.33 57.3665C1753.47 50.004 1745.39 44.3287 1736.09 40.3406C1726.78 36.3526 1716.81 34.3586 1706.17 34.3586C1695.54 34.3586 1685.62 36.3526 1676.41 40.3406C1667.31 44.3287 1659.28 50.004 1652.33 57.3665C1645.48 64.6268 1640.11 73.1653 1636.22 82.9821C1632.33 92.7988 1630.39 103.587 1630.39 115.347C1630.39 126.902 1632.28 137.639 1636.07 147.558C1639.95 157.477 1645.27 166.118 1652.02 173.48C1658.87 180.74 1666.9 186.416 1676.11 190.506C1685.31 194.596 1695.33 196.641 1706.17 196.641Z" fill="white"/>
</svg>
