<svg width="125" height="225" viewBox="0 0 125 225" fill="none" xmlns="http://www.w3.org/2000/svg">
<circle cx="62.0596" cy="62.0313" r="62.0596" fill="#2595D5"/>
<circle cx="62.5408" cy="62.511" r="46.1839" fill="#D8DCDF"/>
<circle cx="62.5398" cy="62.5119" r="34.6379" fill="#2595D5"/>
<path d="M62 224.972L79 120.972H45L62 224.972Z" fill="#2595D5"/>
<path d="M47.74 61.873C47.74 58.3425 48.4173 55.5612 49.7721 53.5291C51.1473 51.497 53.3539 50.481 56.3917 50.481C59.4296 50.481 61.6259 51.497 62.9806 53.5291C64.3559 55.5612 65.0435 58.3425 65.0435 61.873C65.0435 65.4445 64.3559 68.2464 62.9806 70.2784C61.6259 72.3105 59.4296 73.3266 56.3917 73.3266C53.3539 73.3266 51.1473 72.3105 49.7721 70.2784C48.4173 68.2464 47.74 65.4445 47.74 61.873ZM59.8709 61.873C59.8709 59.7998 59.6451 58.2091 59.1936 57.1006C58.742 55.9717 57.8081 55.4072 56.3917 55.4072C54.9754 55.4072 54.0415 55.9717 53.5899 57.1006C53.1384 58.2091 52.9126 59.7998 52.9126 61.873C52.9126 63.2688 52.9947 64.4285 53.1589 65.3522C53.3231 66.2553 53.6515 66.9943 54.1441 67.569C54.6573 68.1232 55.4065 68.4003 56.3917 68.4003C57.377 68.4003 58.1159 68.1232 58.6086 67.569C59.1217 66.9943 59.4604 66.2553 59.6246 65.3522C59.7888 64.4285 59.8709 63.2688 59.8709 61.873ZM67.2709 55.8383V50.9428H75.7996V73.4189H70.3191V55.8383H67.2709Z" fill="#FCFCFC"/>
</svg>
