<svg width="1920" height="771" viewBox="0 0 1920 771" fill="none" xmlns="http://www.w3.org/2000/svg">
<path fill-rule="evenodd" clip-rule="evenodd" d="M301.078 129H0V25H316.132C379.873 25 431.545 66.1898 431.545 117V269.5H876.89C940.631 269.5 992.303 310.69 992.303 361.5V514H1439.53C1503.27 514 1554.94 555.19 1554.94 606V666.5H1920V770.5H1539.89C1476.15 770.5 1424.48 729.31 1424.48 678.5V618H977.249C913.508 618 861.836 576.81 861.836 526V373.5H416.491C352.75 373.5 301.078 332.31 301.078 281.5V129Z" fill="#0C0C0C"/>
<path fill-rule="evenodd" clip-rule="evenodd" d="M301.078 104H0V0H316.132C379.873 0 431.545 41.1898 431.545 92V244.5H876.89C940.631 244.5 992.303 285.69 992.303 336.5V489H1439.53C1503.27 489 1554.94 530.19 1554.94 581V641.5H1920V745.5H1539.89C1476.15 745.5 1424.48 704.31 1424.48 653.5V593H977.249C913.508 593 861.836 551.81 861.836 501V348.5H416.491C352.75 348.5 301.078 307.31 301.078 256.5V104Z" fill="#404950"/>
<path fill-rule="evenodd" clip-rule="evenodd" d="M0 55V49H25.7171V55H0ZM53.3159 49H104.75V55H53.3159V49ZM132.349 49H183.783V55H132.349V49ZM211.382 49H262.816V55H211.382V49ZM290.415 49H316.132C324.274 49 332.005 50.4401 338.937 53.021L342.347 54.2907L339.161 59.7268L335.751 58.4572C329.797 56.2399 323.151 55 316.132 55H290.415V49ZM363.438 71.1034L365.031 73.8215C368.269 79.3468 370.075 85.5094 370.075 92V117.847H362.548V92C362.548 86.4048 360.993 81.1075 358.211 76.3608L356.618 73.6427L363.438 71.1034ZM370.075 148.403V200.097H362.548V148.403H370.075ZM370.075 230.653V256.5C370.075 262.095 371.631 267.393 374.412 272.139L376.005 274.857L369.185 277.397L367.593 274.679C364.355 269.153 362.548 262.991 362.548 256.5V230.653H370.075ZM393.462 288.773L396.872 290.043C402.827 292.26 409.472 293.5 416.491 293.5H445.833V299.5H416.491C408.349 299.5 400.618 298.06 393.687 295.479L390.277 294.209L393.462 288.773ZM479.23 293.5H537.912V299.5H479.23V293.5ZM571.31 293.5H629.992V299.5H571.31V293.5ZM663.389 293.5H722.072V299.5H663.389V293.5ZM755.469 293.5H814.151V299.5H755.469V293.5ZM847.549 293.5H876.89C885.032 293.5 892.763 294.94 899.695 297.521L903.105 298.791L899.919 304.227L896.509 302.957C890.555 300.74 883.909 299.5 876.89 299.5H847.549V293.5ZM924.196 315.603L925.789 318.321C929.027 323.847 930.833 330.009 930.833 336.5V362.347H923.306V336.5C923.306 330.905 921.751 325.608 918.969 320.861L917.376 318.143L924.196 315.603ZM930.833 392.903V444.597H923.306V392.903H930.833ZM930.833 475.153V501C930.833 506.595 932.389 511.892 935.17 516.639L936.763 519.357L929.943 521.897L928.35 519.179C925.113 513.653 923.306 507.491 923.306 501V475.153H930.833ZM954.22 533.273L957.63 534.543C963.585 536.76 970.23 538 977.249 538H1006.7V544H977.249C969.107 544 961.376 542.56 954.444 539.979L951.035 538.709L954.22 533.273ZM1040.26 538H1099.15V544H1040.26V538ZM1132.72 538H1191.61V544H1132.72V538ZM1225.17 538H1284.06V544H1225.17V538ZM1317.63 538H1376.52V544H1317.63V538ZM1410.08 538H1439.53C1447.67 538 1455.4 539.44 1462.33 542.021L1465.74 543.291L1462.56 548.727L1459.15 547.457C1453.19 545.24 1446.55 544 1439.53 544H1410.08V538ZM1486.84 560.103L1488.43 562.821C1491.67 568.347 1493.47 574.509 1493.47 581V604.139H1485.95V581C1485.95 575.405 1484.39 570.107 1481.61 565.361L1480.02 562.643L1486.84 560.103ZM1493.47 630.361V653.5C1493.47 659.095 1495.03 664.393 1497.81 669.139L1499.4 671.857L1492.58 674.397L1490.99 671.679C1487.75 666.153 1485.95 659.991 1485.95 653.5V630.361H1493.47ZM1516.86 685.773L1520.27 687.043C1526.22 689.26 1532.87 690.5 1539.89 690.5H1570.05V696.5H1539.89C1531.75 696.5 1524.02 695.06 1517.08 692.479L1513.67 691.209L1516.86 685.773ZM1604.76 690.5H1665.08V696.5H1604.76V690.5ZM1699.78 690.5H1760.1V696.5H1699.78V690.5ZM1794.81 690.5H1855.13V696.5H1794.81V690.5ZM1889.84 690.5H1920V696.5H1889.84V690.5Z" fill="white"/>
</svg>
