<svg width="40" height="40" viewBox="0 0 40 40" fill="none" xmlns="http://www.w3.org/2000/svg">
<rect width="40" height="40" rx="4" fill="#111111"/>
<path d="M20.9979 34.2951L21.0126 34.2925C21.0241 34.2942 21.0317 34.3022 21.0353 34.3165L21.058 34.8866L21.0526 34.9093L21.0366 34.9307L20.8977 35.0295L20.8817 35.0348L20.8617 35.0295L20.7228 34.9307L20.7095 34.9133L20.7028 34.8866L20.7255 34.3152L20.7308 34.3018C20.738 34.2929 20.7486 34.2907 20.7629 34.2951L20.8577 34.3419L20.8764 34.3472L20.9031 34.3419L20.9979 34.2951Z" fill="white"/>
<path d="M21.349 34.1442L21.3664 34.1416C21.3797 34.1451 21.3886 34.1549 21.3931 34.171L21.4385 34.9908L21.4331 35.0095C21.4242 35.021 21.4113 35.0246 21.3944 35.0201L21.1261 34.896L21.1154 34.8866L21.1087 34.8706L21.0847 34.2965L21.0887 34.2818L21.102 34.2684L21.349 34.1442Z" fill="white"/>
<path d="M20.3921 34.141C20.3988 34.1395 20.4058 34.1407 20.4117 34.1442L20.6574 34.2671L20.6708 34.2804L20.6748 34.2965L20.6521 34.8706L20.6467 34.8853L20.6334 34.896L20.365 35.0201L20.345 35.0228C20.3307 35.0175 20.3232 35.0068 20.3223 34.9908L20.3677 34.171L20.3757 34.1523C20.3795 34.1465 20.3854 34.1425 20.3921 34.141Z" fill="white"/>
<path d="M19.2826 6.16933C19.8095 5.97219 20.3852 5.94649 20.9275 6.09589L21.1572 6.16933L30.5036 9.67422C30.9775 9.85192 31.3911 10.1606 31.6963 10.5644C32.0015 10.9682 32.1856 11.4503 32.2273 11.9547L32.2366 12.175V19.3357C32.2366 21.4993 31.6524 23.6227 30.5458 25.4819C29.4391 27.341 27.851 28.8669 25.9492 29.8985L25.594 30.0841L21.1158 32.3232C20.8692 32.4463 20.5999 32.5172 20.3247 32.5314C20.0494 32.5457 19.7742 32.503 19.5162 32.406L19.324 32.3232L14.8457 30.0841C12.9105 29.1164 11.2724 27.6442 10.1044 25.8229C8.93646 24.0016 8.28188 21.8987 8.2098 19.7363L8.20312 19.3357V12.175C8.20313 11.6692 8.34683 11.1737 8.61748 10.7463C8.88813 10.319 9.27461 9.97727 9.73192 9.76101L9.93621 9.67422L19.2826 6.16933ZM20.2199 8.67015L10.8735 12.175V19.3357C10.8735 21.0114 11.3241 22.6562 12.1779 24.0981C13.0318 25.5399 14.2576 26.7256 15.727 27.5312L16.0407 27.6954L20.2199 29.785L24.399 27.6954C25.8981 26.946 27.1681 25.8073 28.076 24.3986C28.9839 22.9899 29.4963 21.3629 29.5596 19.6882L29.5663 19.3357V12.175L20.2199 8.67015ZM24.8036 14.76C25.0439 14.5205 25.3663 14.3815 25.7054 14.3711C26.0445 14.3608 26.3748 14.4799 26.6292 14.7042C26.8836 14.9286 27.0431 15.2414 27.0753 15.5791C27.1075 15.9168 27.0099 16.2541 26.8024 16.5224L26.6916 16.648L19.7032 23.6377C19.4486 23.8922 19.1094 24.0444 18.7501 24.0653C18.3907 24.0863 18.0362 23.9745 17.7538 23.7512L17.6256 23.6377L14.4158 20.4279C14.1738 20.1882 14.0325 19.865 14.021 19.5246C14.0094 19.1841 14.1285 18.8521 14.3537 18.5966C14.5789 18.341 14.8932 18.1812 15.2324 18.1498C15.5716 18.1184 15.91 18.2179 16.1782 18.4278L16.3038 18.5386L18.6644 20.8992L24.8036 14.76Z" fill="white"/>
</svg>
