<svg width="40" height="40" viewBox="0 0 40 40" fill="none" xmlns="http://www.w3.org/2000/svg">
<rect width="40" height="40" rx="4" fill="#111111"/>
<path d="M15.6003 8C15.9416 8 16.2259 8.26719 16.3309 8.61875C16.869 10.4328 18.4571 11.75 20.334 11.75C22.2108 11.75 23.7989 10.4328 24.337 8.61875C24.442 8.26719 24.7264 8 25.0677 8H25.6189C26.6032 8 27.5526 8.37031 28.3095 9.04531L33.8306 13.9719C34.1194 14.2297 34.2987 14.6047 34.3294 15.0078C34.36 15.4109 34.2375 15.8094 33.9881 16.1141L31.5382 19.1141C31.0394 19.7281 30.1732 19.7984 29.5869 19.2781L27.3339 17.2672V29C27.3339 30.6547 26.0783 32 24.5339 32H16.1341C14.5897 32 13.3341 30.6547 13.3341 29V17.2672L11.081 19.2781C10.4992 19.7984 9.63292 19.7281 9.12981 19.1141L6.67985 16.1141C6.43048 15.8094 6.30798 15.4109 6.3386 15.0078C6.36923 14.6047 6.5486 14.2297 6.83735 13.9719L12.3585 9.04531C13.1154 8.37031 14.0647 8 15.0491 8H15.6003Z" fill="white"/>
</svg>
