<svg width="40" height="40" viewBox="0 0 40 40" fill="none" xmlns="http://www.w3.org/2000/svg">
<rect width="40" height="40" rx="4" fill="#111111"/>
<path d="M11.416 6H27.916C28.6454 6 29.3448 6.295 29.8606 6.8201C30.3763 7.3452 30.666 8.05739 30.666 8.8V31.2C30.666 31.9426 30.3763 32.6548 29.8606 33.1799C29.3448 33.705 28.6454 34 27.916 34H11.416C10.6867 34 9.9872 33.705 9.47147 33.1799C8.95575 32.6548 8.66602 31.9426 8.66602 31.2V8.8C8.66602 8.05739 8.95575 7.3452 9.47147 6.8201C9.9872 6.295 10.6867 6 11.416 6ZM12.791 8.8C12.4263 8.8 12.0766 8.9475 11.8187 9.21005C11.5609 9.4726 11.416 9.8287 11.416 10.2C11.416 10.5713 11.5609 10.9274 11.8187 11.1899C12.0766 11.4525 12.4263 11.6 12.791 11.6C13.1557 11.6 13.5054 11.4525 13.7633 11.1899C14.0211 10.9274 14.166 10.5713 14.166 10.2C14.166 9.8287 14.0211 9.4726 13.7633 9.21005C13.5054 8.9475 13.1557 8.8 12.791 8.8ZM16.916 8.8C16.5513 8.8 16.2016 8.9475 15.9437 9.21005C15.6859 9.4726 15.541 9.8287 15.541 10.2C15.541 10.5713 15.6859 10.9274 15.9437 11.1899C16.2016 11.4525 16.5513 11.6 16.916 11.6C17.2807 11.6 17.6304 11.4525 17.8883 11.1899C18.1461 10.9274 18.291 10.5713 18.291 10.2C18.291 9.8287 18.1461 9.4726 17.8883 9.21005C17.6304 8.9475 17.2807 8.8 16.916 8.8ZM19.666 14.4C17.478 14.4 15.3796 15.285 13.8324 16.8603C12.2852 18.4356 11.416 20.5722 11.416 22.8C11.416 25.0278 12.2852 27.1644 13.8324 28.7397C15.3796 30.315 17.478 31.2 19.666 31.2C21.8541 31.2 23.9525 30.315 25.4996 28.7397C27.0468 27.1644 27.916 25.0278 27.916 22.8C27.916 20.5722 27.0468 18.4356 25.4996 16.8603C23.9525 15.285 21.8541 14.4 19.666 14.4ZM14.3173 17.9H16.916C16.586 19.832 16.916 20.938 17.7135 21.806C19.226 23.304 19.886 25.194 19.5148 27.7H16.916C17.246 25.768 16.916 24.662 16.1185 23.794C14.606 22.296 13.9598 20.406 14.3173 17.9ZM19.8173 17.9H22.416C22.086 19.832 22.416 20.938 23.2135 21.806C24.726 23.304 25.386 25.194 25.0148 27.7H22.416C22.746 25.768 22.416 24.662 21.6185 23.794C20.106 22.296 19.4598 20.406 19.8173 17.9Z" fill="white"/>
</svg>
