<svg width="40" height="40" viewBox="0 0 40 40" fill="none" xmlns="http://www.w3.org/2000/svg">
<rect width="40" height="40" rx="4" fill="#111111"/>
<path d="M27.501 17.7515C27.501 19.9027 26.8025 21.89 25.6259 23.5022L31.5605 29.4404C32.1465 30.0263 32.1465 30.9777 31.5605 31.5635C30.9746 32.1494 30.0229 32.1494 29.437 31.5635L23.5023 25.6253C21.8897 26.8064 19.9021 27.5001 17.7505 27.5001C12.3643 27.5001 8 23.1367 8 17.7515C8 12.3664 12.3643 8.00293 17.7505 8.00293C23.1367 8.00293 27.501 12.3664 27.501 17.7515ZM12.8752 18.1264V21.126C12.8752 21.7494 13.3768 22.2508 14.0003 22.2508C14.6238 22.2508 15.1253 21.7494 15.1253 21.126V18.1264C15.1253 17.5031 14.6238 17.0016 14.0003 17.0016C13.3768 17.0016 12.8752 17.5031 12.8752 18.1264ZM16.6254 13.6271V21.126C16.6254 21.7494 17.127 22.2508 17.7505 22.2508C18.3739 22.2508 18.8755 21.7494 18.8755 21.126V13.6271C18.8755 13.0038 18.3739 12.5023 17.7505 12.5023C17.127 12.5023 16.6254 13.0038 16.6254 13.6271ZM20.3756 16.6267V21.126C20.3756 21.7494 20.8772 22.2508 21.5007 22.2508C22.1241 22.2508 22.6257 21.7494 22.6257 21.126V16.6267C22.6257 16.0033 22.1241 15.5018 21.5007 15.5018C20.8772 15.5018 20.3756 16.0033 20.3756 16.6267Z" fill="white"/>
<path d="M14 16C14.1313 16 14.2614 15.9741 14.3827 15.9239C14.504 15.8736 14.6142 15.8 14.7071 15.7071C14.8 15.6142 14.8736 15.504 14.9239 15.3827C14.9741 15.2614 15 15.1313 15 15C15 14.8687 14.9741 14.7386 14.9239 14.6173C14.8736 14.496 14.8 14.3858 14.7071 14.2929C14.6142 14.2 14.504 14.1264 14.3827 14.0761C14.2614 14.0259 14.1313 14 14 14C13.7348 14 13.4804 14.1054 13.2929 14.2929C13.1054 14.4804 13 14.7348 13 15C13 15.2652 13.1054 15.5196 13.2929 15.7071C13.4804 15.8946 13.7348 16 14 16Z" fill="url(#paint0_linear_dpd_trend)"/>
<defs>
<linearGradient id="paint0_linear_dpd_trend" x1="13.088" y1="14.0247" x2="14.9145" y2="15.9187" gradientUnits="userSpaceOnUse">
<stop stop-color="#F66234"/>
<stop offset="1" stop-color="#C8370B"/>
</linearGradient>
</defs>
</svg>
