<svg width="40" height="40" viewBox="0 0 40 40" fill="none" xmlns="http://www.w3.org/2000/svg">
<rect width="40" height="40" rx="4" fill="#111111"/>
<path d="M25.2525 8.77593L22.7301 11.412L28.3998 17.3265L30.9222 14.6952C31.9139 13.6606 31.9139 11.9883 30.9222 10.9537L28.8391 8.77593C27.8473 7.74136 26.2443 7.74136 25.2525 8.77593ZM21.6116 12.3804L21.195 12.5127L14.6694 14.5535C13.7682 14.8369 13.0527 15.555 12.7538 16.4903L8.74156 28.9713C8.56947 29.5051 8.69627 30.1004 9.07214 30.5019L16.0279 23.2505C15.8921 22.9528 15.8151 22.6222 15.8151 22.2726C15.8151 21.0207 16.7887 20.005 17.9888 20.005C19.1888 20.005 20.1625 21.0207 20.1625 22.2726C20.1625 23.5245 19.1888 24.5401 17.9888 24.5401C17.6537 24.5401 17.3367 24.4598 17.0514 24.3181L10.0956 31.5743C10.485 31.9664 11.0511 32.1034 11.5628 31.9191L23.5317 27.7336C24.4238 27.4218 25.1167 26.6754 25.3884 25.7353L27.3447 18.9279L27.4715 18.4933L21.6116 12.3804Z" fill="white"/>
</svg>
