<svg width="40" height="40" viewBox="0 0 40 40" fill="none" xmlns="http://www.w3.org/2000/svg">
<rect width="40" height="40" rx="4" fill="#111111"/>
<path d="M15.2694 8C15.5984 8 15.8726 8.26719 15.9739 8.61875C16.4928 10.4328 18.0242 11.75 19.834 11.75C21.6438 11.75 23.1752 10.4328 23.6941 8.61875C23.7953 8.26719 24.0695 8 24.3986 8H24.9301C25.8793 8 26.7948 8.37031 27.5246 9.04531L32.8486 13.9719C33.127 14.2297 33.3 14.6047 33.3295 15.0078C33.3591 15.4109 33.2409 15.8094 33.0005 16.1141L30.638 19.1141C30.1571 19.7281 29.3218 19.7984 28.7565 19.2781L26.5839 17.2672V29C26.5839 30.6547 25.3731 32 23.8839 32H15.7841C14.2949 32 13.0841 30.6547 13.0841 29V17.2672L10.9115 19.2781C10.3504 19.7984 9.5151 19.7281 9.02995 19.1141L6.6675 16.1141C6.42703 15.8094 6.30891 15.4109 6.33844 15.0078C6.36797 14.6047 6.54094 14.2297 6.81937 13.9719L12.1433 9.04531C12.8732 8.37031 13.7886 8 14.7378 8H15.2694Z" fill="white"/>
</svg>
