<svg xmlns="http://www.w3.org/2000/svg" version="1.1" xmlns:xlink="http://www.w3.org/1999/xlink" width="512" height="512" x="0" y="0" viewBox="0 0 512 512" style="enable-background:new 0 0 512 512" xml:space="preserve" class=""><g><path fill="#579bd3" d="m363.36 101.46 6.765 11.276 20.94 13.208 10.63.644 7.41 6.765-1.933 11.598-8.698 18.684-4.832 15.141-.645 11.598.967 5.476 1.288-.322 8.376.967h4.188l13.208 3.543 10.31 4.51 1.932 4.833 1.61 6.12 12.243 8.054 14.496 5.155 4.833-1.611 18.04-18.685 7.087 3.222 4.188 9.986-.322 5.155-4.832 19.973-.967 10.953 4.188 7.087.645 5.477-1.289 5.154-7.41.322-9.664-2.577-8.054-8.698-6.12.967-5.477 2.255-2.577 8.053-2.577 9.665.644 5.476 3.866 4.188 2.899 9.02 2.255 11.598 1.61 5.477-1.932 2.255-5.155 1.61-4.187-1.61-7.41-13.853-3.221-5.476-5.8-.967-10.308 3.222-16.107 7.731h-6.443l-5.477-1.933-4.832-6.443-4.188-12.886-1.289-7.731h-2.9l-10.308-2.255-4.51 2.899-.322 12.886-1.289 16.108-5.154 10.308-14.497 17.719-5.476 7.731-1.933 5.799-.645 4.832 1.933 8.376 2.9 8.376-2.578 4.51-7.731 2.255-5.155-5.154-1.933-8.698-11.275-12.242 5.477-9.987-.645-2.255-19.006-5.798-8.054-7.732-10.953-13.53-1.933-5.799.966-18.363-.644-4.51-1.289-2.255h-5.798l-7.732 6.121-7.41 9.342-14.818 10.31-1.611 2.254 4.51 10.953-.322 3.866-12.242 16.43-2.577 5.476-15.463 9.987-7.087 3.866-20.618-8.698-5.799-.967-9.342 4.51-13.53 4.51-21.584 3.866-7.732-3.865-3.544-3.544-1.61-5.154-5.155-9.343-5.799-5.476-3.865-6.121-5.155-6.443-3.543-5.477 5.476-16.752-2.9-6.12-1.61-8.699 1.289-5.798-1.933-1.289-19.007-4.51-15.785.322-11.598 4.833-9.986 9.02-1.29 1.933.645 1.61 4.188 9.02-8.376 8.699-12.564 6.443h-8.375l-3.866-1.611.644-9.665 7.087-3.221 6.765-5.799 2.578-9.02 1.288-6.12-6.443-8.055 1.289-4.51 4.51-8.698 2.9-7.731 3.543-6.443 13.852-10.31 13.853-10.63 2.577-11.598 1.61-14.496 2.256-3.222 18.04-7.731 4.51-3.222 2.578-4.832 14.818-15.463 14.497-15.141 2.9-5.155 2.577-3.221v-2.577l-1.611-1.933-6.443-1.933-1.933-5.155 7.41-8.698 9.02-5.154 8.698.322 3.543 2.9-.322 2.899 3.544 3.221 6.443 1.611 8.054-.966 8.053-2.9 5.477-8.054 2.9-5.798 12.885-6.765 8.698 3.865 23.517 1.933 17.719-1.288 10.953-4.51 13.53.644 9.02 2.9 1.611-.323 2.255-.644 2.577-2.577 8.698-1.29 1.289-2.254-.322-2.255-1.611-.967-10.631.645-3.866-1.611-.966-3.866 3.543-6.765 8.054-5.154 6.443-1.289 4.51 1.61 11.276 10.31 2.899.644 1.61-1.933 2.256-.967 4.188 2.256 4.188 6.12.644 1.289 25.772-1.933z" opacity="1" data-original="#579bd3" class=""></path></g></svg>